<?xml version="1.0" encoding="utf-8"?>
<svg viewBox="0 0 100 100" xmlns="http://www.w3.org/2000/svg">
  <rect width="100" height="100" style="stroke-width: 0px; fill: rgb(237, 69, 156);"/>
  <g transform="matrix(1, 0, 0, 1, 5, 3.208061)">
    <path d="M 40.84 14.883 Q 45.84 14.883 48.64 17.883 Q 51.44 20.883 51.44 26.523 L 51.44 43.523 L 42 43.523 L 42 26.803 Q 42 24.723 40.92 23.623 Q 39.84 22.523 37.96 22.523 Q 36.04 22.523 34.9 23.703 Q 33.76 24.883 33.76 27.123 L 33.76 43.523 L 24.32 43.523 L 24.32 26.803 Q 24.32 24.723 23.34 23.623 Q 22.36 22.523 20.6 22.523 Q 18.8 22.523 17.76 23.703 Q 16.72 24.883 16.72 27.123 L 16.72 43.523 L 7.28 43.523 L 7.28 15.523 L 16.4 15.523 L 16.4 18.323 Q 19 14.883 24.12 14.883 Q 29.48 14.883 32.08 18.643 Q 33.56 16.763 35.82 15.823 Q 38.08 14.883 40.84 14.883 Z" style="fill: rgb(147, 39, 95); white-space: pre;"/>
    <path d="M 83.08 83.047 Q 80.8 83.047 79.3 81.587 Q 77.8 80.127 77.8 77.847 Q 77.8 75.567 79.3 74.147 Q 80.8 72.727 83.08 72.727 Q 85.36 72.727 86.86 74.147 Q 88.36 75.567 88.36 77.847 Q 88.36 80.127 86.86 81.587 Q 85.36 83.047 83.08 83.047 Z" style="fill: rgb(147, 39, 95); white-space: pre;"/>
    <path d="M 17.61 85.371 Q 14.33 85.371 11.67 84.311 Q 9.01 83.251 7.29 81.211 L 12.37 75.211 Q 13.49 76.611 14.57 77.291 Q 15.65 77.971 16.81 77.971 Q 18.29 77.971 19.07 77.091 Q 19.85 76.211 19.85 74.491 L 19.85 59.851 L 10.33 59.851 L 10.33 52.731 L 29.17 52.731 L 29.17 73.931 Q 29.17 79.651 26.23 82.511 Q 23.29 85.371 17.61 85.371 Z" style="fill: rgb(147, 39, 95); white-space: pre;"/>
    <path d="M 53.96 81.371 Q 49.44 81.371 45.84 79.491 Q 42.24 77.611 40.2 74.271 Q 38.16 70.931 38.16 66.731 Q 38.16 62.531 40.2 59.191 Q 42.24 55.851 45.84 53.971 Q 49.44 52.091 53.96 52.091 Q 58.48 52.091 62.08 53.971 Q 65.68 55.851 67.72 59.191 Q 69.76 62.531 69.76 66.731 Q 69.76 70.931 67.72 74.271 Q 65.68 77.611 62.08 79.491 Q 58.48 81.371 53.96 81.371 Z M 53.96 73.731 Q 55.72 73.731 57.14 72.871 Q 58.56 72.011 59.4 70.431 Q 60.24 68.851 60.24 66.731 Q 60.24 64.611 59.4 63.031 Q 58.56 61.451 57.14 60.591 Q 55.72 59.731 53.96 59.731 Q 52.2 59.731 50.78 60.591 Q 49.36 61.451 48.52 63.031 Q 47.68 64.611 47.68 66.731 Q 47.68 68.851 48.52 70.431 Q 49.36 72.011 50.78 72.871 Q 52.2 73.731 53.96 73.731 Z" style="fill: rgb(147, 39, 95); white-space: pre;"/>
    <path d="M 71.96 44.163 Q 67.44 44.163 63.84 42.283 Q 60.24 40.403 58.2 37.063 Q 56.16 33.723 56.16 29.523 Q 56.16 25.323 58.2 21.983 Q 60.24 18.643 63.84 16.763 Q 67.44 14.883 71.96 14.883 Q 76.48 14.883 80.08 16.763 Q 83.68 18.643 85.72 21.983 Q 87.76 25.323 87.76 29.523 Q 87.76 33.723 85.72 37.063 Q 83.68 40.403 80.08 42.283 Q 76.48 44.163 71.96 44.163 Z M 71.96 36.523 Q 73.72 36.523 75.14 35.663 Q 76.56 34.803 77.4 33.223 Q 78.24 31.643 78.24 29.523 Q 78.24 27.403 77.4 25.823 Q 76.56 24.243 75.14 23.383 Q 73.72 22.523 71.96 22.523 Q 70.2 22.523 68.78 23.383 Q 67.36 24.243 66.52 25.823 Q 65.68 27.403 65.68 29.523 Q 65.68 31.643 66.52 33.223 Q 67.36 34.803 68.78 35.663 Q 70.2 36.523 71.96 36.523 Z" style="fill: rgb(147, 39, 95); white-space: pre;"/>
  </g>
  <g transform="matrix(1, 0, 0, 1, 1, 0)">
    <path d="M 40.84 14.883 Q 45.84 14.883 48.64 17.883 Q 51.44 20.883 51.44 26.523 L 51.44 43.523 L 42 43.523 L 42 26.803 Q 42 24.723 40.92 23.623 Q 39.84 22.523 37.96 22.523 Q 36.04 22.523 34.9 23.703 Q 33.76 24.883 33.76 27.123 L 33.76 43.523 L 24.32 43.523 L 24.32 26.803 Q 24.32 24.723 23.34 23.623 Q 22.36 22.523 20.6 22.523 Q 18.8 22.523 17.76 23.703 Q 16.72 24.883 16.72 27.123 L 16.72 43.523 L 7.28 43.523 L 7.28 15.523 L 16.4 15.523 L 16.4 18.323 Q 19 14.883 24.12 14.883 Q 29.48 14.883 32.08 18.643 Q 33.56 16.763 35.82 15.823 Q 38.08 14.883 40.84 14.883 Z" style="fill: rgb(255, 255, 255); white-space: pre;"/>
    <path d="M 84.08 83.047 Q 81.8 83.047 80.3 81.587 Q 78.8 80.127 78.8 77.847 Q 78.8 75.567 80.3 74.147 Q 81.8 72.727 84.08 72.727 Q 86.36 72.727 87.86 74.147 Q 89.36 75.567 89.36 77.847 Q 89.36 80.127 87.86 81.587 Q 86.36 83.047 84.08 83.047 Z" style="fill: rgb(255, 255, 255); white-space: pre;"/>
    <path d="M 17.61 85.371 Q 14.33 85.371 11.67 84.311 Q 9.01 83.251 7.29 81.211 L 12.37 75.211 Q 13.49 76.611 14.57 77.291 Q 15.65 77.971 16.81 77.971 Q 18.29 77.971 19.07 77.091 Q 19.85 76.211 19.85 74.491 L 19.85 59.851 L 10.33 59.851 L 10.33 52.731 L 29.17 52.731 L 29.17 73.931 Q 29.17 79.651 26.23 82.511 Q 23.29 85.371 17.61 85.371 Z" style="fill: rgb(255, 255, 255); white-space: pre;"/>
    <path d="M 53.96 81.371 Q 49.44 81.371 45.84 79.491 Q 42.24 77.611 40.2 74.271 Q 38.16 70.931 38.16 66.731 Q 38.16 62.531 40.2 59.191 Q 42.24 55.851 45.84 53.971 Q 49.44 52.091 53.96 52.091 Q 58.48 52.091 62.08 53.971 Q 65.68 55.851 67.72 59.191 Q 69.76 62.531 69.76 66.731 Q 69.76 70.931 67.72 74.271 Q 65.68 77.611 62.08 79.491 Q 58.48 81.371 53.96 81.371 Z M 53.96 73.731 Q 55.72 73.731 57.14 72.871 Q 58.56 72.011 59.4 70.431 Q 60.24 68.851 60.24 66.731 Q 60.24 64.611 59.4 63.031 Q 58.56 61.451 57.14 60.591 Q 55.72 59.731 53.96 59.731 Q 52.2 59.731 50.78 60.591 Q 49.36 61.451 48.52 63.031 Q 47.68 64.611 47.68 66.731 Q 47.68 68.851 48.52 70.431 Q 49.36 72.011 50.78 72.871 Q 52.2 73.731 53.96 73.731 Z" style="fill: rgb(255, 255, 255); white-space: pre;"/>
    <path d="M 71.96 44.163 Q 67.44 44.163 63.84 42.283 Q 60.24 40.403 58.2 37.063 Q 56.16 33.723 56.16 29.523 Q 56.16 25.323 58.2 21.983 Q 60.24 18.643 63.84 16.763 Q 67.44 14.883 71.96 14.883 Q 76.48 14.883 80.08 16.763 Q 83.68 18.643 85.72 21.983 Q 87.76 25.323 87.76 29.523 Q 87.76 33.723 85.72 37.063 Q 83.68 40.403 80.08 42.283 Q 76.48 44.163 71.96 44.163 Z M 71.96 36.523 Q 73.72 36.523 75.14 35.663 Q 76.56 34.803 77.4 33.223 Q 78.24 31.643 78.24 29.523 Q 78.24 27.403 77.4 25.823 Q 76.56 24.243 75.14 23.383 Q 73.72 22.523 71.96 22.523 Q 70.2 22.523 68.78 23.383 Q 67.36 24.243 66.52 25.823 Q 65.68 27.403 65.68 29.523 Q 65.68 31.643 66.52 33.223 Q 67.36 34.803 68.78 35.663 Q 70.2 36.523 71.96 36.523 Z" style="fill: rgb(255, 255, 255); white-space: pre;"/>
  </g>
</svg>