<?xml version="1.0" encoding="utf-8"?>
<svg viewBox="0 0 100 100" xmlns="http://www.w3.org/2000/svg">
  <rect width="100" height="100" style="stroke-width: 0px; fill: rgb(237, 69, 156);"/>
  <g transform="matrix(1, 0, 0, 1, 3, 2)">
    <path d="M 40.84 14.148 Q 45.84 14.148 48.64 17.148 Q 51.44 20.148 51.44 25.788 L 51.44 42.788 L 42 42.788 L 42 26.068 Q 42 23.988 40.92 22.888 Q 39.84 21.788 37.96 21.788 Q 36.04 21.788 34.9 22.968 Q 33.76 24.148 33.76 26.388 L 33.76 42.788 L 24.32 42.788 L 24.32 26.068 Q 24.32 23.988 23.34 22.888 Q 22.36 21.788 20.6 21.788 Q 18.8 21.788 17.76 22.968 Q 16.72 24.148 16.72 26.388 L 16.72 42.788 L 7.28 42.788 L 7.28 14.788 L 16.4 14.788 L 16.4 17.588 Q 19 14.148 24.12 14.148 Q 29.48 14.148 32.08 17.908 Q 33.56 16.028 35.82 15.088 Q 38.08 14.148 40.84 14.148 Z" style="fill: rgb(255, 255, 255); white-space: pre;"/>
    <path d="M 39.61 86.428 Q 36.33 86.428 33.67 85.368 Q 31.01 84.308 29.29 82.268 L 34.37 76.268 Q 35.49 77.668 36.57 78.348 Q 37.65 79.028 38.81 79.028 Q 40.29 79.028 41.07 78.148 Q 41.85 77.268 41.85 75.548 L 41.85 60.908 L 32.33 60.908 L 32.33 53.788 L 51.17 53.788 L 51.17 74.988 Q 51.17 80.708 48.23 83.568 Q 45.29 86.428 39.61 86.428 Z" style="fill: rgb(255, 255, 255); white-space: pre;"/>
    <path d="M 71.96 82.428 Q 67.44 82.428 63.84 80.548 Q 60.24 78.668 58.2 75.328 Q 56.16 71.988 56.16 67.788 Q 56.16 63.588 58.2 60.248 Q 60.24 56.908 63.84 55.028 Q 67.44 53.148 71.96 53.148 Q 76.48 53.148 80.08 55.028 Q 83.68 56.908 85.72 60.248 Q 87.76 63.588 87.76 67.788 Q 87.76 71.988 85.72 75.328 Q 83.68 78.668 80.08 80.548 Q 76.48 82.428 71.96 82.428 Z M 71.96 74.788 Q 73.72 74.788 75.14 73.928 Q 76.56 73.068 77.4 71.488 Q 78.24 69.908 78.24 67.788 Q 78.24 65.668 77.4 64.088 Q 76.56 62.508 75.14 61.648 Q 73.72 60.788 71.96 60.788 Q 70.2 60.788 68.78 61.648 Q 67.36 62.508 66.52 64.088 Q 65.68 65.668 65.68 67.788 Q 65.68 69.908 66.52 71.488 Q 67.36 73.068 68.78 73.928 Q 70.2 74.788 71.96 74.788 Z" style="fill: rgb(255, 255, 255); white-space: pre;"/>
    <path d="M 71.96 43.428 Q 67.44 43.428 63.84 41.548 Q 60.24 39.668 58.2 36.328 Q 56.16 32.988 56.16 28.788 Q 56.16 24.588 58.2 21.248 Q 60.24 17.908 63.84 16.028 Q 67.44 14.148 71.96 14.148 Q 76.48 14.148 80.08 16.028 Q 83.68 17.908 85.72 21.248 Q 87.76 24.588 87.76 28.788 Q 87.76 32.988 85.72 36.328 Q 83.68 39.668 80.08 41.548 Q 76.48 43.428 71.96 43.428 Z M 71.96 35.788 Q 73.72 35.788 75.14 34.928 Q 76.56 34.068 77.4 32.488 Q 78.24 30.908 78.24 28.788 Q 78.24 26.668 77.4 25.088 Q 76.56 23.508 75.14 22.648 Q 73.72 21.788 71.96 21.788 Q 70.2 21.788 68.78 22.648 Q 67.36 23.508 66.52 25.088 Q 65.68 26.668 65.68 28.788 Q 65.68 30.908 66.52 32.488 Q 67.36 34.068 68.78 34.928 Q 70.2 35.788 71.96 35.788 Z" style="fill: rgb(255, 255, 255); white-space: pre;"/>
  </g>
</svg>