<?xml version="1.0" encoding="utf-8"?>
<svg viewBox="0 0 200 48" xmlns="http://www.w3.org/2000/svg">
  <path d="M 53.176 0.59 Q 60.176 0.59 64.096 4.79 Q 68.016 8.99 68.016 16.886 L 68.016 40.686 L 54.8 40.686 L 54.8 17.278 Q 54.8 14.366 53.288 12.826 Q 51.776 11.286 49.144 11.286 Q 46.456 11.286 44.86 12.938 Q 43.264 14.59 43.264 17.726 L 43.264 40.686 L 30.048 40.686 L 30.048 17.278 Q 30.048 14.366 28.676 12.826 Q 27.304 11.286 24.84 11.286 Q 22.32 11.286 20.864 12.938 Q 19.408 14.59 19.408 17.726 L 19.408 40.686 L 6.192 40.686 L 6.192 1.486 L 18.96 1.486 L 18.96 5.406 Q 22.6 0.59 29.768 0.59 Q 37.272 0.59 40.912 5.854 Q 42.984 3.222 46.148 1.906 Q 49.312 0.59 53.176 0.59 Z M 94.603 41.582 Q 88.275 41.582 83.235 38.95 Q 78.195 36.318 75.339 31.642 Q 72.483 26.966 72.483 21.086 Q 72.483 15.206 75.339 10.53 Q 78.195 5.854 83.235 3.222 Q 88.275 0.59 94.603 0.59 Q 100.931 0.59 105.971 3.222 Q 111.011 5.854 113.867 10.53 Q 116.723 15.206 116.723 21.086 Q 116.723 26.966 113.867 31.642 Q 111.011 36.318 105.971 38.95 Q 100.931 41.582 94.603 41.582 Z M 94.603 30.886 Q 97.067 30.886 99.055 29.682 Q 101.043 28.478 102.219 26.266 Q 103.395 24.054 103.395 21.086 Q 103.395 18.118 102.219 15.906 Q 101.043 13.694 99.055 12.49 Q 97.067 11.286 94.603 11.286 Q 92.139 11.286 90.151 12.49 Q 88.163 13.694 86.987 15.906 Q 85.811 18.118 85.811 21.086 Q 85.811 24.054 86.987 26.266 Q 88.163 28.478 90.151 29.682 Q 92.139 30.886 94.603 30.886 Z M 129.776 47.182 Q 125.184 47.182 121.46 45.698 Q 117.736 44.214 115.328 41.358 L 122.44 32.958 Q 124.008 34.918 125.52 35.87 Q 127.032 36.822 128.656 36.822 Q 130.728 36.822 131.82 35.59 Q 132.912 34.358 132.912 31.95 L 132.912 11.454 L 119.584 11.454 L 119.584 1.486 L 145.96 1.486 L 145.96 31.166 Q 145.96 39.174 141.844 43.178 Q 137.728 47.182 129.776 47.182 Z M 172.557 41.582 Q 166.229 41.582 161.189 38.95 Q 156.149 36.318 153.293 31.642 Q 150.437 26.966 150.437 21.086 Q 150.437 15.206 153.293 10.53 Q 156.149 5.854 161.189 3.222 Q 166.229 0.59 172.557 0.59 Q 178.885 0.59 183.925 3.222 Q 188.965 5.854 191.821 10.53 Q 194.677 15.206 194.677 21.086 Q 194.677 26.966 191.821 31.642 Q 188.965 36.318 183.925 38.95 Q 178.885 41.582 172.557 41.582 Z M 172.557 30.886 Q 175.021 30.886 177.009 29.682 Q 178.997 28.478 180.173 26.266 Q 181.349 24.054 181.349 21.086 Q 181.349 18.118 180.173 15.906 Q 178.997 13.694 177.009 12.49 Q 175.021 11.286 172.557 11.286 Q 170.093 11.286 168.105 12.49 Q 166.117 13.694 164.941 15.906 Q 163.765 18.118 163.765 21.086 Q 163.765 24.054 164.941 26.266 Q 166.117 28.478 168.105 29.682 Q 170.093 30.886 172.557 30.886 Z" style="fill: none; paint-order: fill; stroke: rgb(237, 69, 156);"/>
</svg>
