<?xml version="1.0" encoding="utf-8"?>
<svg viewBox="0 0 200 48" xmlns="http://www.w3.org/2000/svg">
  <path d="M 47.258 1.682 Q 53.954 1.682 57.707 5.651 Q 61.46 9.62 61.46 17.126 L 61.46 40.238 L 50.768 40.238 L 50.768 17.45 Q 50.768 14.048 48.986 12.293 Q 47.204 10.538 44.234 10.538 Q 41.048 10.538 39.185 12.401 Q 37.322 14.264 37.322 17.99 L 37.322 40.238 L 26.63 40.238 L 26.63 17.45 Q 26.63 14.048 24.983 12.293 Q 23.336 10.538 20.474 10.538 Q 17.396 10.538 15.56 12.401 Q 13.724 14.264 13.724 17.99 L 13.724 40.238 L 3.032 40.238 L 3.032 2.438 L 13.4 2.438 L 13.4 6.65 Q 15.128 4.22 17.855 2.951 Q 20.582 1.682 24.2 1.682 Q 27.926 1.682 30.707 3.032 Q 33.488 4.382 35.216 6.974 Q 37.16 4.382 40.292 3.032 Q 43.424 1.682 47.258 1.682 Z" style="fill: rgb(237, 69, 156); white-space: pre;"/>
  <path d="M 87.797 40.994 Q 81.803 40.994 77.024 38.456 Q 72.245 35.918 69.518 31.436 Q 66.791 26.954 66.791 21.338 Q 66.791 15.722 69.518 11.24 Q 72.245 6.758 77.024 4.22 Q 81.803 1.682 87.797 1.682 Q 93.791 1.682 98.57 4.22 Q 103.349 6.758 106.076 11.24 Q 108.803 15.722 108.803 21.338 Q 108.803 26.954 106.076 31.436 Q 103.349 35.918 98.57 38.456 Q 93.791 40.994 87.797 40.994 Z M 87.797 32.138 Q 90.659 32.138 92.981 30.788 Q 95.303 29.438 96.653 26.981 Q 98.003 24.524 98.003 21.338 Q 98.003 18.152 96.653 15.695 Q 95.303 13.238 92.981 11.888 Q 90.659 10.538 87.797 10.538 Q 84.935 10.538 82.613 11.888 Q 80.291 13.238 78.941 15.695 Q 77.591 18.152 77.591 21.338 Q 77.591 24.524 78.941 26.981 Q 80.291 29.438 82.613 30.788 Q 84.935 32.138 87.797 32.138 Z" style="fill: rgb(237, 69, 156); white-space: pre;"/>
  <path d="M 121.021 46.394 Q 116.863 46.394 113.488 44.963 Q 110.113 43.532 107.953 40.832 L 113.731 33.92 Q 116.755 37.862 120.211 37.862 Q 122.587 37.862 123.802 36.458 Q 125.017 35.054 125.017 32.354 L 125.017 10.7 L 111.949 10.7 L 111.949 2.438 L 135.601 2.438 L 135.601 31.706 Q 135.601 39.05 131.902 42.722 Q 128.203 46.394 121.021 46.394 Z" style="fill: rgb(237, 69, 156); white-space: pre;"/>
  <path d="M 161.891 40.994 Q 155.897 40.994 151.118 38.456 Q 146.339 35.918 143.612 31.436 Q 140.885 26.954 140.885 21.338 Q 140.885 15.722 143.612 11.24 Q 146.339 6.758 151.118 4.22 Q 155.897 1.682 161.891 1.682 Q 167.885 1.682 172.664 4.22 Q 177.443 6.758 180.17 11.24 Q 182.897 15.722 182.897 21.338 Q 182.897 26.954 180.17 31.436 Q 177.443 35.918 172.664 38.456 Q 167.885 40.994 161.891 40.994 Z M 161.891 32.138 Q 164.753 32.138 167.075 30.788 Q 169.397 29.438 170.747 26.981 Q 172.097 24.524 172.097 21.338 Q 172.097 18.152 170.747 15.695 Q 169.397 13.238 167.075 11.888 Q 164.753 10.538 161.891 10.538 Q 159.029 10.538 156.707 11.888 Q 154.385 13.238 153.035 15.695 Q 151.685 18.152 151.685 21.338 Q 151.685 24.524 153.035 26.981 Q 154.385 29.438 156.707 30.788 Q 159.029 32.138 161.891 32.138 Z" style="fill: rgb(237, 69, 156); white-space: pre;"/>
  <path d="M 191.272 40.724 Q 188.68 40.724 186.898 38.996 Q 185.116 37.268 185.116 34.622 Q 185.116 31.922 186.871 30.248 Q 188.626 28.574 191.272 28.574 Q 193.972 28.574 195.7 30.248 Q 197.428 31.922 197.428 34.622 Q 197.428 37.268 195.673 38.996 Q 193.918 40.724 191.272 40.724 Z" style="fill: rgb(237, 69, 156); white-space: pre;"/>
</svg>