<?xml version="1.0" encoding="utf-8"?>
<svg viewBox="0 0 96 96" xmlns="http://www.w3.org/2000/svg">
  <path style="fill: none; stroke-linecap: round; stroke-width: 2px; stroke: rgb(68, 68, 68);" d="M 21.743 57.022 C 21.046 53.593 22.691 48.993 23.707 45.69 C 29.82 25.821 56.281 19.969 70.011 36.443 C 72.35 39.25 72.886 42.607 73.87 45.95 C 80.078 67.057 59.107 81.244 39.194 76.558 C 32.113 74.892 25.507 70.381 23.134 63.262 C 22.565 61.555 21.991 56.052 20.978 55.041"/>
  <path style="fill: none; stroke-linecap: round; stroke-width: 2px; stroke: rgb(68, 68, 68);" d="M 55.421 50.624 C 56.118 49.421 57.054 47.142 55.525 46.123 C 54.737 45.597 51.356 46.014 51.406 45.914 C 52.899 42.926 61.215 40.585 64.216 40.039 C 64.654 39.96 68.075 38.406 68.075 38.406 C 68.075 38.406 65.066 41.188 64.703 41.43 C 61.574 43.516 58.262 50.294 54.639 50.294"/>
  <path style="fill: none; stroke-linecap: round; stroke-width: 2px; stroke: rgb(68, 68, 68);" d="M 41.818 60.621 C 39.752 60.43 38.67 59.174 38.202 57.302 C 38.002 56.5 39.702 54.355 39.332 55.094 C 38.111 57.534 34.453 59.69 32.831 62.238 C 32.142 63.321 30.603 64.271 30.172 65.419 C 29.896 66.154 29.424 67.939 28.869 67.383 C 28.842 67.357 34.78 65.756 35.891 65.28 C 37.168 64.732 39.074 63.647 40.218 62.829 C 40.779 62.428 42.266 60.809 41.731 61.612"/>
  <path style="fill: none; stroke-linecap: round; stroke-width: 2px; stroke: rgb(68, 68, 68);" d="M 50.317 36.241 C 45.853 36.566 46.388 33.233 49.483 30.14 C 49.947 29.677 49.68 31.437 49.761 32.087 C 49.867 32.931 50.569 35.899 50.352 35.754"/>
  <path style="fill: none; stroke-linecap: round; stroke-width: 2px; stroke: rgb(68, 68, 68);" d="M 29.726 55.654 C 32.561 48.641 28.134 52.584 25.397 53.953 C 24.411 54.446 27.175 54.933 28.64 55.514"/>
  <path style="fill: none; stroke-linecap: round; stroke-width: 2px; stroke: rgb(68, 68, 68);" d="M 51.008 69.022 C 49.824 69.065 46.68 68.222 45.724 68.987 C 45.377 69.265 47.335 74.474 47.705 74.567 C 48.963 74.881 49.731 70.024 49.947 69.161"/>
  <path style="fill: none; stroke-linecap: round; stroke-width: 2px; stroke: rgb(68, 68, 68);" d="M 72.156 54.191 C 71.682 54.829 68.928 57.93 67.95 57.441 C 67.159 57.045 67.846 51.618 67.846 51.618 C 67.846 51.618 73.515 54.347 72.052 54.347"/>
  <path style="fill: none; stroke-linecap: round; stroke-width: 2px; stroke: rgb(68, 68, 68);" d="M 47.783 50.826 C 46.986 50.218 46.015 51.391 45.796 52.085 C 45.119 54.226 47.106 56.904 49.44 55.66 C 50.895 54.883 51.15 52.192 49.774 51.209 C 48.648 50.405 47.264 50.718 46.066 51.018"/>
  <path style="fill: none; stroke-linecap: round; stroke-width: 2px; stroke: rgb(68, 68, 68);" d="M 31.717 34.81 C 34.5 38.119 37.722 41.084 40.628 44.295 C 41.365 45.11 42.192 45.872 42.89 46.71 C 43.018 46.864 43.563 47.215 43.563 47.423"/>
  <path style="fill: none; stroke-linecap: round; stroke-width: 2px; stroke: rgb(68, 68, 68);" d="M 53.133 58.271 C 56.077 60.712 58.042 64.67 60.583 67.515 C 61.511 68.554 62.153 69.799 63.027 70.879 C 63.345 71.272 63.68 71.632 63.961 72.054 C 64.016 72.137 64.361 72.629 64.33 72.629"/>
  <path style="fill: none; stroke-linecap: round; stroke-width: 2px; stroke: rgb(68, 68, 68);" d="M 51.554 22.575 C 58.006 23.036 65.18 24.211 69.808 29.258 C 72.887 32.616 76.123 35.446 78.005 39.747 C 78.854 41.685 79.029 43.752 79.343 45.79 C 80.058 50.426 81.468 56.027 79.697 60.631 C 78.279 64.317 75.839 68.444 73.034 71.248 C 72.216 72.065 71.941 73.36 70.973 74.105 C 69.241 75.437 66.883 76.186 65.087 77.429 C 63.577 78.474 61.874 79.546 60.106 80.109 C 58.074 80.755 55.897 80.857 53.811 81.225 C 51.868 81.568 50.136 82.226 48.127 82.331 C 46.759 82.403 45.222 82.148 43.859 81.997 C 40.899 81.668 37.798 81.763 34.973 80.664 C 28.551 78.168 21.304 72.808 18.071 66.61 C 15.481 61.644 14.87 55.572 15.962 50.108"/>
  <path style="fill: none; stroke-linecap: round; stroke-width: 2px; stroke: rgb(68, 68, 68);" d="M 16.021 50.245 C 16.081 46.574 17.8 43.051 19.409 39.835 C 20.121 38.411 20.841 36.639 21.789 35.375 C 22.847 33.965 24.43 32.946 25.452 31.486 C 26.72 29.674 27.974 27.436 29.903 26.209 C 32.692 24.435 36.196 23.409 39.334 22.467 C 40.221 22.201 41.401 22.074 42.329 22.074 C 42.415 22.074 43.868 22.099 43.809 22.157 C 43.715 22.252 43.618 21.971 43.524 21.877"/>
  <path style="fill: none; stroke-linecap: round; stroke-width: 2px; stroke: rgb(68, 68, 68);" d="M 50.743 22.895 C 50.989 22.147 50.752 21.198 50.886 20.397 C 50.932 20.119 50.963 19.838 51.013 19.561 C 51.037 19.432 51.009 19.037 51.009 19.168"/>
  <path style="fill: none; stroke-linecap: round; stroke-width: 2px; stroke: rgb(68, 68, 68);" d="M 44.945 22.639 C 45.092 21.644 45.06 20.542 45.108 19.532 C 45.131 19.041 45.299 17.58 45.299 18.071"/>
  <path style="fill: none; stroke-linecap: round; stroke-width: 2px; stroke: rgb(68, 68, 68);" d="M 50.989 17.663 C 49.899 17.413 47.908 17.315 46.863 17.614 C 46.55 17.703 46.244 17.824 45.934 17.909 C 45.769 17.954 45.414 17.899 45.417 17.909"/>
  <path style="fill: none; stroke-linecap: round; stroke-width: 2px; stroke: rgb(68, 68, 68);" d="M 51.186 17.422 C 50.569 15.635 49.632 11.939 46.996 14.575 C 46.623 14.948 46.242 15.31 45.929 15.735 C 45.585 16.202 45.334 16.695 45.201 17.26 C 45.166 17.407 45.27 18.027 45.172 18.076"/>
</svg>