<?xml version="1.0" encoding="utf-8"?>
<svg viewBox="0 0 96 96" xmlns="http://www.w3.org/2000/svg">
  <path style="fill: none; stroke-linecap: round; stroke-width: 2px; stroke: rgb(68, 68, 68);" d="M 79.986 18.667 C 76.319 30.795 66.985 42.876 60.398 53.696 C 58.054 57.547 55.646 61.468 53.617 65.526 C 52.99 66.779 50.134 71.183 50.134 70.649"/>
  <path style="fill: none; stroke-linecap: round; stroke-width: 2px; stroke: rgb(68, 68, 68);" d="M 79.47 18.372 C 65.393 23.651 50.448 28.011 37.088 35.084 C 32.473 37.528 28.13 40.408 23.378 42.566 C 21.846 43.263 20.784 44.488 19.343 45.312 C 18.812 45.615 17.448 46.708 17.666 46.418"/>
  <path style="fill: none; stroke-linecap: round; stroke-width: 2px; stroke: rgb(68, 68, 68);" d="M 79.193 19.938 C 69.529 28.193 59.15 36.115 49.821 44.778 C 46.556 47.809 42.941 51.029 39.355 53.659 C 38.187 54.515 36.891 55.164 35.872 56.184 C 35.339 56.716 34.397 58.651 34.397 57.897"/>
  <path style="fill: none; stroke-linecap: round; stroke-width: 2px; stroke: rgb(68, 68, 68);" d="M 77.904 19.883 C 67.01 26.964 55.927 35.99 45.085 43.819 C 41.561 46.365 37.377 48.708 34.342 51.743 C 33.19 52.895 29.318 55.487 29.496 55.354"/>
  <path style="fill: none; stroke-linecap: round; stroke-width: 2px; stroke: rgb(68, 68, 68);" d="M 28.63 55.925 C 25.461 54.632 22.641 51.934 20.007 49.826 C 19.18 49.166 15.555 47.431 16.063 47.431"/>
  <path style="fill: none; stroke-linecap: round; stroke-width: 2px; stroke: rgb(68, 68, 68);" d="M 34.379 59.353 C 37.124 62.631 41.28 64.912 44.698 67.571 C 45.824 68.446 47.292 69.17 48.31 70.188 C 48.715 70.591 49.824 71.625 49.582 71.625"/>
  <path style="fill: none; stroke-linecap: round; stroke-width: 2px; stroke: rgb(68, 68, 68);" d="M 27.672 56.884 C 27.744 61.483 27.743 66.121 27.469 70.777 C 27.383 72.234 27.831 78.09 27.304 76.508"/>
  <path style="fill: none; stroke-linecap: round; stroke-width: 2px; stroke: rgb(68, 68, 68);" d="M 34.361 59.28 C 32.717 63.457 30.557 67.411 28.832 71.551 C 28.292 72.849 28.099 74.389 27.691 75.752 C 27.59 76.087 27.045 78.191 27.045 77.485"/>
  <path style="fill: none; stroke-linecap: round; stroke-width: 2px; stroke: rgb(68, 68, 68);" d="M 40.221 64.623 C 37.42 67.517 34.1 70.676 30.934 73.21 C 29.991 73.964 28.742 74.989 28.04 75.992 C 27.811 76.318 26.824 77.738 26.824 77.614"/>
  <path style="fill: none; stroke-linecap: round; stroke-width: 2px; stroke: rgb(68, 68, 68);" d="M 30.38 66.632 C 29.737 66.167 27.622 64.31 26.843 64.31"/>
  <path style="fill: none; stroke-linecap: round; stroke-width: 2px; stroke: rgb(68, 68, 68);" d="M 32.389 62.523 C 30.723 61.713 28.669 60.589 26.953 60.016"/>
  <path style="fill: none; stroke-linecap: round; stroke-width: 2px; stroke: rgb(68, 68, 68);" d="M 33.845 58.948 C 32.983 58.109 30.033 57.031 28.814 57.031"/>
  <path style="fill: none; stroke-linecap: round; stroke-width: 2px; stroke: rgb(68, 68, 68);" d="M 35.835 54.986 C 35.219 53.585 34.822 53.661 33.642 53.069"/>
  <path style="fill: none; stroke-linecap: round; stroke-width: 2px; stroke: rgb(68, 68, 68);" d="M 40.221 51.484 C 39.328 50.974 38.165 50.25 37.106 50.25"/>
  <path style="fill: none; stroke-linecap: round; stroke-width: 2px; stroke: rgb(68, 68, 68);" d="M 44.238 48.5 C 43.591 47.687 42.802 47.468 42.118 46.785"/>
  <path style="fill: none; stroke-linecap: round; stroke-width: 2px; stroke: rgb(68, 68, 68);" d="M 48.899 45.09 C 48.769 44.95 47.093 42.955 46.744 43.654"/>
  <path style="fill: none; stroke-linecap: round; stroke-width: 2px; stroke: rgb(68, 68, 68);" d="M 52.696 40.761 C 52.098 40.382 51.548 40.315 50.963 40.023"/>
  <path style="fill: none; stroke-linecap: round; stroke-width: 2px; stroke: rgb(68, 68, 68);" d="M 57.302 37.278 C 56.618 36.398 56.919 36.43 56.289 36.43"/>
</svg>