<?xml version="1.0" encoding="utf-8"?>
<svg viewBox="0 0 96 96" xmlns="http://www.w3.org/2000/svg">
  <path style="fill: none; stroke-linecap: round; stroke-width: 2px; stroke: rgb(68, 68, 68);" d="M 36.626 19.084 C 44.645 8.545 59.978 15.021 64.391 23.846 C 65.033 25.128 59.664 29.819 62.91 32.417 C 64.811 33.938 68.934 32.482 69.598 30.492 C 69.882 29.637 72.064 28.29 71.163 28.29 C 70.855 28.29 72.9 29.211 73.449 29.348 C 74.4 29.586 78.465 32.396 78.465 32.396 C 78.465 32.396 76.841 36.101 76.687 36.459 C 75.158 40.025 72.168 43.125 70.275 46.278 C 70.138 46.506 68.688 49.579 68.688 49.579 C 68.688 49.579 61.644 46.202 61.238 45.39 C 60.72 44.353 64.948 38.133 61.005 36.819 C 59.111 36.187 56.59 39.935 55.968 41.178 C 55.693 41.731 56.055 41.836 54.233 40.925 C 52.727 40.171 43.61 33.03 43.61 33.03 C 43.61 33.03 46.802 23.631 45.282 21.73 C 43.44 19.428 35.321 19.783 35.272 19.783"/>
  <path style="fill: none; stroke-linecap: round; stroke-width: 2px; stroke: rgb(68, 68, 68);" d="M 53.344 40.585 C 46.421 48.855 40.465 58.284 35.906 68.16 C 32.533 75.469 29.675 85.785 20.627 81.26 C 10.776 76.333 27.298 58.784 30.933 54.786 C 32.53 53.029 34.003 51.109 35.419 49.22 C 37.723 46.148 39.859 43.024 42.593 40.289 C 43.577 39.307 44.955 35.67 45.324 36.777"/>
</svg>