<?xml version="1.0" encoding="utf-8"?>
<svg viewBox="0 0 96 96" xmlns="http://www.w3.org/2000/svg">
  <path style="fill: none; stroke-linecap: round; stroke-width: 2px; stroke: rgb(68, 68, 68);" d="M 48.771 76.937 C 43.164 78.076 42.371 75.909 42.791 82.14 C 42.85 83.015 42.881 84.793 43.463 85.368 C 43.611 85.514 50.431 86.4 50.383 86.425 C 50.314 86.458 50.206 84.431 50.194 84.276 C 50.094 82.894 50.112 81.503 50.03 80.119 C 49.986 79.378 49.864 78.607 49.665 77.89 C 49.621 77.732 49.357 76.745 49.512 76.821"/>
  <path style="fill: none; stroke-linecap: round; stroke-width: 2px; stroke: rgb(68, 68, 68);" d="M 50.572 77.797 C 53.294 78.021 56.422 75.153 59.009 74.302 C 59.359 74.188 61.285 73.394 61.658 73.64 C 62.25 74.03 61.958 76.545 61.988 77.077 C 62.14 79.787 61.626 82.482 61.835 85.147 C 61.887 85.818 61.211 87.051 61.517 87.655 C 61.567 87.754 60.345 87.314 60.269 87.284 C 59.443 86.944 58.581 86.727 57.727 86.459 C 55.435 85.74 52.641 85.616 50.513 84.567"/>
  <path style="fill: none; stroke-linecap: round; stroke-width: 2px; stroke: rgb(68, 68, 68);" d="M 42.769 78.227 C 41.367 77.536 35.519 74.036 33.965 74.801 C 33.293 75.132 33.038 77.498 32.976 78.145 C 32.673 81.287 32.05 84.677 32.683 87.794 C 32.84 88.57 37.459 86.049 38.037 85.889 C 38.498 85.763 41.737 84.933 41.65 84.891"/>
  <path style="fill: none; stroke-linecap: round; stroke-width: 2px; stroke: rgb(68, 68, 68);" d="M 73.586 40.057 C 70.722 41.721 66.165 40.362 63.023 40.362 C 55.194 40.362 46.93 40.328 39.132 40.847 C 35.389 41.096 31.619 41.35 27.868 41.35 C 26.609 41.35 25.313 41.148 24.06 40.99 C 23.534 40.925 22.198 41.224 22.444 41.224"/>
  <path style="fill: none; stroke-linecap: round; stroke-width: 2px; stroke: rgb(68, 68, 68);" d="M 59.144 40.523 C 59.801 32.761 57.709 24.677 58.353 16.956 C 58.467 15.594 58.828 9.223 57.868 8.261 C 57.093 7.486 48.49 9.192 47.126 9.088 C 45.268 8.945 36.003 8.605 34.659 9.95 C 34.637 9.972 35.037 13.784 35.107 14.639 C 35.518 19.56 36.136 24.578 36.886 29.459 C 37.154 31.197 37.265 39.875 37.335 39.805"/>
</svg>