<?xml version="1.0" encoding="utf-8"?>
<svg viewBox="0 0 96 96" xmlns="http://www.w3.org/2000/svg">
  <path style="fill: none; stroke-linecap: round; stroke-width: 2px; stroke: rgb(68, 68, 68);" d="M 65.837 22.681 C 64.962 33.174 67.082 43.83 66.554 54.377 C 66.49 55.659 67.755 63.986 66.234 64.746 C 60.348 67.686 47.975 66.309 41.602 65.975 C 36.695 65.715 31.282 66.502 26.321 66.502 C 25.919 66.502 21.899 66.929 21.845 66.824 C 20.776 64.686 21.939 59.335 22.468 57.039 C 24.205 49.512 23.129 41.12 23.129 33.467 C 23.129 31.158 21.795 24.471 23.092 23.607 C 24.545 22.638 27.204 23.748 28.852 23.418 C 37.994 21.59 46.861 19.452 56.317 19.452 C 57.259 19.452 71.259 17.563 66.006 22.814"/>
  <path style="fill: none; stroke-linecap: round; stroke-width: 2px; stroke: rgb(68, 68, 68);" d="M 67.177 20.679 C 68.724 22.893 71.701 24.975 73.411 26.685 C 74.169 27.444 73.536 33.289 73.618 34.449 C 74.211 42.754 73.571 51.126 74.09 59.438 C 74.283 62.512 75.543 73.162 73.147 74.36 C 70.654 75.606 65.02 75.476 62.153 75.626 C 53.855 76.062 45.829 76.155 37.522 76.155 C 35.583 76.155 26.434 76.577 26.434 76.797"/>
  <path style="fill: none; stroke-linecap: round; stroke-width: 2px; stroke: rgb(68, 68, 68);" d="M 68.273 22.719 C 67.887 34.125 69.464 45.752 68.519 57.115 C 68.324 59.452 69.729 67.731 68.254 69.204 C 67.277 70.179 63.243 70.009 61.889 70.28 C 54.44 71.77 46.059 71.019 38.542 70.393 C 35.495 70.139 32.455 70.563 29.382 70.563 C 28.419 70.563 24.445 71.023 25.453 70.771"/>
  <path style="fill: none; stroke-linecap: round; stroke-width: 2px; stroke: rgb(68, 68, 68);" d="M 71.446 26.383 C 71.446 36.495 70.645 47.058 71.559 57.134 C 71.878 60.64 72.366 64.372 71.976 67.882 C 71.85 68.997 71.787 70.22 71.787 71.338 C 71.787 71.919 72.102 73.486 71.693 73.076 C 71.148 72.531 64.672 74.538 63.399 74.379 C 54.302 73.244 44.531 75.849 35.103 74.397 C 34.164 74.253 24.188 74.435 24.621 74.001"/>
  <path style="fill: none; stroke-linecap: round; stroke-width: 2px; stroke: rgb(68, 68, 68);" d="M 21.674 67.995 C 22.792 69.05 24.562 77.144 25.377 76.872"/>
  <path style="fill: none; stroke-linecap: round; stroke-width: 2px; stroke: rgb(68, 68, 68);" d="M 33.102 38.963 C 35.835 33.209 36.118 37.404 40.186 37.15 C 41.556 37.064 43.188 35.202 44.342 35.394 C 45.924 35.658 47.347 37.565 49.158 37.112 C 50.697 36.727 59.11 37.161 58.772 37.415"/>
  <path style="fill: none; stroke-linecap: round; stroke-width: 2px; stroke: rgb(68, 68, 68);" d="M 32.667 51.713 C 36.667 49.187 44.8 49.419 49.951 50.316 C 50.826 50.468 58.722 50.896 58.262 49.975"/>
  <path style="fill: none; stroke-linecap: round; stroke-width: 2px; stroke: rgb(68, 68, 68);" d="M 53.143 45.48 C 48.239 44.832 44.081 42.951 38.996 44.29 C 37.54 44.673 36.134 44.996 34.633 45.197 C 33.794 45.308 32.281 44.964 32.573 45.159"/>
  <path style="fill: none; stroke-linecap: round; stroke-width: 2px; stroke: rgb(68, 68, 68);" d="M 58.035 60.855 C 56.601 60.829 45.286 62.167 45.286 60.818"/>
  <path style="fill: none; stroke-linecap: round; stroke-width: 2px; stroke: rgb(68, 68, 68);" d="M 37.22 28.31 C 36.526 28.399 29.857 29.259 29.853 29.255"/>
  <path style="fill: none; stroke-linecap: round; stroke-width: 2px; stroke: rgb(68, 68, 68);" d="M 59.094 26.402 C 57.987 26.25 54.226 27.002 53.577 26.138"/>
</svg>