<?xml version="1.0" encoding="utf-8"?>
<svg viewBox="0 0 960 480" xmlns="http://www.w3.org/2000/svg" xmlns:bx="https://boxy-svg.com">
  <defs>
    <bx:grid x="0" y="0" width="96" height="96"/>
  </defs>
  <path style="fill: none; stroke-width: 2px; stroke: rgb(51, 51, 51);" d="M 67.28 42.399 C 66.6 39.732 67.334 33.328 66.986 33.154 C 63.595 31.46 45.827 33.473 44.468 35.226 C 42.374 60.362 43.914 55.764 43.346 92.539 C 43.257 98.304 43.952 125.696 44.581 131.35 C 44.672 132.169 44.611 135.68 44.611 135.68 C 44.611 135.68 49.06 135.576 49.416 135.511 C 53.728 134.727 58.147 136.014 62.348 135.314 C 63.551 135.114 70.054 135.068 70.362 134.453 C 71.072 133.034 69.266 126.92 69.115 124.801 C 68.329 113.802 67.887 103.248 67.043 92.274 C 66.62 86.782 66.472 85.217 66.472 79.779 C 66.472 78.249 66.02 72.87 66.296 69.076 C 66.768 65.379 67.108 62.397 68.982 60.114 C 71.076 57.563 87.694 56.428 90.376 60.704 C 95.727 69.233 94.2 88.027 94.2 95.979 C 94.2 109.356 94.2 118.204 94.2 130.948 C 94.2 137.793 100.663 134.171 110.127 134.336 C 112.595 134.379 117.159 134.717 117.31 134.267 C 118.286 131.339 116.451 123.724 116.028 120.134 C 114.499 107.135 114.068 94.884 114.068 81.752 C 114.068 77.076 112.415 69.394 114.562 65.1 C 117.642 58.939 124.245 57.491 130.983 58.715 C 137.101 59.827 136.868 65.881 137.707 70.728 C 140.7 88.027 139.604 100.532 140.899 116.077 C 141.13 118.857 141.076 136.175 141.344 136.16 C 144.754 135.966 155.535 135.707 159.028 136.579 C 159.488 136.694 163.687 137.262 163.863 137.085 C 164.42 136.528 163.38 131.861 163.329 131.154 C 162.9 125.151 162.377 119.504 162.377 113.463 C 162.377 103.287 162.189 91.452 161.221 81.348 C 159.749 65.99 162.181 50.041 145.618 41.757 C 138.646 38.271 115.245 38.98 111.951 43.14 C 110.207 45.342 107.436 49.281 106.158 52.712 C 106.152 52.729 102.811 47.048 100.89 45.439 C 97.992 43.011 93.543 38.769 88.916 38.14 C 77.504 36.588 70.585 40.433 67.28 42.399 Z"/>
  <path style="fill: none; stroke-width: 2px; stroke: rgb(51, 51, 51);" d="M 177.272 59.8 C 172.559 77.598 173.412 74.171 174.531 90.843 C 176.236 116.252 207.754 142.946 234.988 135.584 C 246.675 132.425 254.109 118.091 255.848 107.078 C 259.584 83.42 254.116 57.419 233.695 42.954 C 222.829 35.258 208.344 32.92 196.305 39.89 C 191.899 42.441 187.816 45.576 184.076 49.083 C 179.268 54.283 177.272 59.8 177.272 59.8 Z"/>
  <path style="fill: none; stroke-width: 2px; stroke: rgb(51, 51, 51);" d="M 197.604 76.366 C 191.447 98.339 213.87 119.71 231.98 108.99 C 244.264 101.719 241.221 76.787 229.872 69.099 C 222.599 64.172 212.822 60.6 203.849 66.511 C 200.713 69.053 198.656 73.191 197.604 76.366 Z"/>
  <path style="fill: none; stroke-width: 2px; stroke: rgb(51, 51, 51);" d="M 270.554 44.337 C 271.473 50.065 267.648 58.042 269.546 58.729 C 272.409 59.765 283.594 58.13 286.2 58.058 C 293.326 57.86 300.134 57.479 307.073 57.479 C 308.612 57.479 308.975 63.702 309.862 67.594 C 311.624 75.324 311.085 80.156 310.694 83.665 C 309.322 95.998 313.492 108.267 303.945 116.179 C 298.129 120.999 287.332 115.97 286.2 110.027 C 285.833 108.1 286.447 99.701 285.001 98.251 C 284.463 97.712 275.993 100.119 274.964 100.247 C 273.37 100.446 269.212 100.968 268.386 101.793 C 265.727 104.452 268.165 116.032 268.864 119.026 C 272.751 135.682 294.405 143.953 311.265 137.558 C 322.09 133.452 326.11 125.194 327.423 114.697 C 329.766 95.953 330.825 79.664 329.128 60.569 C 328.522 53.756 328.176 47.572 327.62 39.749 C 327.481 37.79 327.119 33.54 324.977 32.468 C 322.102 31.03 316.148 32.714 313.198 33.227 C 306.644 34.367 298.225 35.161 291.607 34.83 C 286.908 34.595 281.631 34.28 276.96 34.998 C 275.594 35.208 271.185 34.917 271.225 34.998 L 270.554 44.337 Z"/>
  <path style="fill: none; stroke-width: 2px; stroke: rgb(51, 51, 51);" d="M 357.106 51.465 C 345.418 72.718 342.137 90.744 353.034 110.171 C 361.423 125.126 385.692 140.545 402.709 130.44 C 432.452 112.777 429.243 65.92 405.464 44.641 C 396.014 36.184 377.344 34.025 366.541 41.227 C 361.272 44.165 359.211 47.26 357.106 51.465 Z"/>
  <path style="fill: none; stroke-width: 2px; stroke: rgb(51, 51, 51);" d="M 369.983 88.027 C 372.429 97.803 382.2 108.17 394.528 105.42 C 408.25 102.359 410.515 82.456 402.231 71.854 C 399.877 68.84 396.19 67.727 392.926 66.034 C 390.248 64.646 382.183 64.141 375.489 67.284 C 369.167 73.303 368.717 82.878 369.983 88.027 Z"/>
  <path style="stroke-width: 2px; stroke: rgb(51, 51, 51); fill: rgb(237, 69, 156);" d="M 521.771 195.459 C 524.17 203.024 522.892 212.869 523.57 220.788 C 524.829 235.473 528.403 253.313 525.875 267.848 C 525.069 272.486 524.779 277.944 524.779 282.663 C 524.779 283.188 524.849 287.407 524.667 287.498 C 523.78 287.941 518.733 286.664 517.189 286.824 C 506.428 287.937 495.335 285.371 484.578 285.952 C 474.381 286.504 464.199 285.225 454.16 285.643 C 452.703 285.704 443.93 286.406 442.943 285.418 C 440.677 283.152 440.699 272.031 440.244 268.691 C 437.893 251.452 434.592 233.862 433.834 216.431 C 433.632 211.792 435.746 199.001 432.26 195.515 C 432.2 195.219 434.746 193.736 437.152 193.856 C 441.949 194.097 447.156 194.024 451.939 193.575 C 470.033 191.879 487.925 194.212 505.972 193.182 C 510.728 192.91 523.383 189.585 521.771 195.459 Z"/>
  <path style="fill: none; stroke-width: 2px; stroke: rgb(255, 255, 255);" d="M 450.004 213.914 C 453.69 215.374 452.256 225.807 452.394 229.376 C 452.409 229.771 452.759 234.97 452.759 234.97 C 452.759 234.97 453.197 230.045 453.237 229.741 C 453.739 225.895 455.066 219.293 459.141 217.765 C 464.411 215.789 465.69 220.1 465.888 224.849 C 465.959 226.556 466.168 228.262 466.281 229.966 C 466.291 230.104 466.526 232.5 466.703 232.412 C 467.115 232.206 467.178 227.469 467.209 227.07 C 467.546 222.698 470.444 214.749 476.402 215.741 C 480.688 216.455 479.673 229.232 480.282 232.074 C 480.551 233.333 481.681 237.878 483.458 236.544"/>
  <path style="fill: none; stroke-width: 2px; stroke: rgb(255, 255, 255);" d="M 491.015 219.648 C 488.76 224.629 487.084 227.624 491.667 232.524 C 498.072 239.372 508.255 234.942 508.591 227.211 C 511.887 210.411 492.73 214.615 491.015 219.648 Z"/>
  <path style="fill: none; stroke-width: 2px; stroke: rgb(255, 255, 255);" d="M 468.193 246.918 C 471.666 248.654 481.646 244.958 484.049 247.367 C 485.456 248.778 481.845 250.971 481.94 252.962 C 482.213 258.679 483.215 273.207 474.041 272.669 C 467.623 272.291 469.948 266.012 467.04 263.11"/>
  <path style="fill: none; stroke-width: 2px; stroke: rgb(255, 255, 255);" d="M 496.165 249.673 C 484.095 257.72 503.181 273.279 509.294 261.733 C 514.263 252.347 507.057 247.083 498.358 247.873 L 496.165 249.673 Z"/>
  <path style="fill: none; stroke-width: 2px; stroke: rgb(51, 51, 51);" d="M 220.191 200.218 C 222.706 201.224 221.99 205.925 221.99 208.258 C 221.99 215.29 223.209 222.422 223.845 229.427 C 224.031 231.467 224.125 233.517 224.295 235.555 C 224.377 236.539 222.83 238.479 223.817 238.479 C 224.257 238.479 223.976 229.535 223.958 229.089 C 223.754 224.194 223.929 210.437 229.243 207.78 C 241.104 201.85 240.503 217.072 241.079 225.126 C 241.264 227.716 241.303 230.404 241.303 232.997 C 241.303 234.253 241.95 237.963 241.95 236.708 C 241.95 228.13 237.572 207.287 251.115 205.784 C 260.626 204.729 259.024 221.604 259.492 227.234 C 259.66 229.251 260.223 236.933 260.223 236.427"/>
  <path style="fill: none; stroke-width: 2px; stroke: rgb(51, 51, 51);" d="M 273.015 214.415 C 264.903 230.326 283.032 250.643 295.814 232.182 C 305.614 218.028 288.709 196.338 275.461 209.608 L 273.015 214.415 Z"/>
  <path style="fill: none; stroke-width: 2px; stroke: rgb(51, 51, 51);" d="M 309.814 209.186 C 312.105 207.771 314.977 208.041 317.574 207.752 C 333.333 206.002 329.764 212.131 331.461 226.278 C 332.223 232.627 333.976 241.741 330.983 247.728 C 327.6 254.498 317.189 254.435 312.12 250.146 C 307.971 246.636 311.368 241.271 309.336 238.226"/>
  <path style="fill: none; stroke-width: 2px; stroke: rgb(51, 51, 51);" d="M 346.305 213.234 C 344.12 214.61 343.148 217.538 342.2 219.84 C 341.409 221.762 340.851 223.994 340.851 226.081 C 340.851 245.123 372.263 234.193 365 218.632 C 362.617 213.526 359.067 212.115 355.021 211.266 C 352.106 210.654 346.305 213.234 346.305 213.234 Z"/>
  <path style="fill: none; stroke-width: 2px; stroke: rgb(51, 51, 51);" d="M 459.564 48.38 C 461.83 50.067 460.941 55.004 460.941 57.742 C 460.941 59.357 461.353 64.022 460.632 62.577 C 458.476 58.26 462.535 48.598 468.138 49.617 C 471.867 50.295 469.844 60.328 470.668 60.328 C 471.455 60.328 471.298 49.763 475.756 49.42 C 479.221 49.154 480.577 62.578 480.761 62.211"/>
  <path style="fill: none; stroke-width: 2px; stroke: rgb(51, 51, 51);" d="M 492.006 49.055 C 485.819 51.181 486.82 62.798 493.889 62.155 C 503.301 61.299 503.884 47.958 494.227 47.958 L 492.006 49.055 Z"/>
  <path style="fill: none; stroke-width: 2px; stroke: rgb(51, 51, 51);" d="M 514.833 45.428 C 514.833 45.428 514.984 53.012 515.002 53.468 C 515.274 60.548 518.225 70.693 513.315 76.942 C 508.554 83.002 504.038 75.345 504.038 70.673"/>
  <path style="fill: none; stroke-width: 2px; stroke: rgb(51, 51, 51);" d="M 523.323 51.782 C 521.324 54.842 522.664 66.813 530.914 62.493 C 535.034 60.334 537.512 55.213 534.625 51.276 C 527.596 47.677 523.323 51.782 523.323 51.782 Z"/>
  <path style="fill: none; stroke-width: 2px; stroke: rgb(51, 51, 51);" d="M 544.464 60.215 C 540.607 62.938 548.146 65.008 548.597 61.396 C 548.73 60.327 546.657 59.887 546.657 58.81"/>
  <path style="fill: none; stroke-width: 2px; stroke: rgb(51, 51, 51);" d="M 567.039 47.396 C 561.32 46.105 556.914 55.002 559.195 59.85 C 560.499 62.621 562.914 62.437 565.352 61.34 C 565.665 61.199 569.444 58.416 567.685 58.416"/>
  <path style="fill: none; stroke-width: 2px; stroke: rgb(51, 51, 51);" d="M 573.758 53.525 C 571.77 66.649 593.587 54.439 581.742 49.055 C 580.525 48.502 579.04 48.303 577.722 48.183 C 576.326 48.056 575.608 50.489 574.207 50.489 L 573.758 53.525 Z"/>
  <path style="fill: none; stroke-width: 2px; stroke: rgb(51, 51, 51);" d="M 589.894 48.183 C 589.781 49.654 589.648 51.15 589.726 52.625 C 589.777 53.602 589.782 54.599 589.782 55.577 C 589.782 66.6 592.089 46.482 596.923 49.505 C 599.606 51.182 600.02 63.049 600.605 62.464"/>
  <path style="fill: none; stroke-width: 2px; stroke: rgb(51, 51, 51);" d="M 612.75 48.717 C 610.032 48.275 604.708 51.662 607.043 54.93 C 608.504 56.975 615.595 53.09 615.196 56.28 C 614.513 61.735 606.43 60.556 609.095 58.557"/>
  <path style="fill: none; stroke-width: 2px; stroke: rgb(51, 51, 51);" d="M 620.959 48.942 C 619.901 51.783 619.706 62.399 625.176 57.77 C 629.414 54.184 626.747 44.465 627.397 55.521 C 627.463 56.642 628.521 58.262 628.521 59.035"/>
  <path style="fill: none; stroke-width: 2px; stroke: rgb(51, 51, 51);" d="M 633.301 37.304 C 635.299 42.468 632.55 50.982 633.16 56.673 C 633.226 57.289 633.813 62.914 634.369 62.914"/>
  <path style="fill: none; stroke-width: 2px; stroke: rgb(51, 51, 51);" d="M 643.224 41.071 C 643.116 46.952 642.407 52.632 642.943 58.529 C 643.119 60.459 643.632 62.185 644.208 64.011 C 644.382 64.561 644.827 66.721 644.827 66.484"/>
  <path style="fill: none; stroke-width: 2px; stroke: rgb(51, 51, 51);" d="M 647.132 49.111 C 643.753 49.428 640.477 50.685 637.264 50.685"/>
  <path style="fill: none; stroke-width: 2px; stroke: rgb(51, 51, 51);" d="M 652.024 50.713 C 652.024 51.459 651.679 58.95 651.574 58.95"/>
  <path style="fill: none; stroke-width: 2px; stroke: rgb(51, 51, 51);" d="M 660.767 49.758 C 660.799 51.604 660.851 53.447 660.851 55.296 C 660.851 56.444 660.894 57.605 660.935 58.754 C 661.391 71.539 661.308 48.962 665.686 49.448 C 668.182 49.726 669.655 56.901 669.96 58.725 C 670.055 59.299 670.409 63.458 670.409 62.183"/>
  <path style="fill: none; stroke-width: 2px; stroke: rgb(51, 51, 51);" d="M 684.353 47.172 C 674.372 47.27 675.123 58.298 679.855 61.003 C 686.861 65.006 686.068 47.962 686.068 57.938 C 686.068 58.844 686.144 59.897 686.265 60.806 C 686.451 62.201 686.22 63.666 686.377 65.079 C 686.609 67.159 686.41 70.083 685.843 72.107 C 683.472 80.577 674.964 77.278 674.964 69.549"/>
  <path style="fill: none; stroke-width: 2px; stroke: rgb(51, 51, 51);" d="M 685.253 42.167 C 685.024 47.088 685.988 52.608 685.988 57.54"/>
  <path fill="rgb(255,0,0)" stroke-width="0" opacity="0.8196078431372549" d="M 513.573 35.891 C 514.067 35.611 516.553 36.689 516.852 37.257 C 517.063 37.657 516.717 38.429 516.306 38.624 C 515.776 38.875 514.007 38.585 513.573 38.077 C 513.18 37.616 513.167 36.121 513.573 35.891 Z M 652.23 43.172 C 652.683 42.935 654.002 43.311 654.143 43.719 C 654.299 44.17 653.296 45.708 652.777 45.905 C 652.362 46.062 651.556 45.733 651.41 45.358 C 651.235 44.908 651.747 43.424 652.23 43.172 Z" style="fill: rgb(0, 0, 0); fill-opacity: 1; fill-rule: nonzero; stroke-dasharray: none; stroke-dashoffset: 0px; stroke-linecap: butt; stroke-linejoin: miter; stroke-miterlimit: 4; stroke-opacity: 1; stroke-width: 1px; paint-order: normal; vector-effect: none; opacity: 1; mix-blend-mode: normal; isolation: auto; stroke: rgb(51, 51, 51);"/>
  <g transform="matrix(1, 0, 0, 1, -12.770763, 1.315614)">
    <path style="fill: none; stroke-width: 2px; stroke: rgb(51, 51, 51);" d="M 742.392 208.991 C 744.459 214.332 743.214 223.683 743.214 226.957 C 743.214 238.964 742.018 251.001 742.418 262.995 C 743.745 302.795 741.212 342.506 744.992 382.174 C 746.111 393.915 746.478 406.122 746.478 417.92 C 746.478 420.343 748.082 430.761 747.645 432.86 C 747.016 435.883 737.618 432.833 730.397 434.586 C 711.791 439.102 693.821 435.75 676.286 436.018 C 670.931 436.1 665.615 436.963 660.31 437.372 C 659.811 437.41 655.881 438.256 655.613 437.451 C 654.824 435.087 656.458 429.7 656.754 427.181 C 657.664 419.436 658.837 411.154 658.585 403.351 C 657.587 372.443 653.78 341.76 652.375 310.868 C 651.315 287.564 650.624 264.004 650.624 240.677 C 650.624 232.948 647.059 219.6 649.562 212.096 C 650.825 208.309 666.415 208.22 670.102 208.036 C 688.643 207.109 705.837 210.238 724.293 210.238 C 730.667 210.238 742.392 211.676 742.392 208.991 Z"/>
    <path style="fill: none; stroke-width: 2px; stroke: rgb(51, 51, 51);" d="M 662.698 207.903 C 659.942 214.876 656.657 221.32 652.72 227.62 C 652.25 228.374 650.307 233.618 649.96 233.618"/>
    <path style="fill: none; stroke-width: 2px; stroke: rgb(51, 51, 51);" d="M 673.526 209.124 C 670.317 219.553 663.004 229.501 658.479 239.456 C 656.98 242.753 650.261 255.725 651.393 252.327"/>
    <path style="fill: none; stroke-width: 2px; stroke: rgb(51, 51, 51);" d="M 686.981 208.381 C 686.377 211.125 684.066 212.959 683 215.626 C 677.335 229.788 668.653 242.702 662.513 256.52 C 660.475 261.104 657.849 267.557 654.87 271.726 C 653.49 273.657 651.299 278.64 651.473 278.466"/>
    <path style="fill: none; stroke-width: 2px; stroke: rgb(51, 51, 51);" d="M 702.16 209.92 C 694.624 232.084 678.961 252.086 669.253 273.451 C 666.041 280.52 661.626 287.196 658.161 294.123 C 657.099 296.245 653.766 300.12 652.08 302.324"/>
    <path style="fill: none; stroke-width: 2px; stroke: rgb(51, 51, 51);" d="M 714.706 210.321 C 711.658 215.913 707.981 223.938 705.69 229.505 C 697.289 249.916 685.685 270.632 673.42 289.028 C 668.137 296.951 663.849 308.818 657.179 315.486 C 656.678 315.986 652.897 322.138 652.897 322.138"/>
    <path style="fill: none; stroke-width: 2px; stroke: rgb(51, 51, 51);" d="M 729.866 211.008 C 725.081 219.198 720.656 227.934 716.225 235.316 C 709.95 245.773 706.492 257.993 701.046 268.886 C 695.341 280.296 686.999 290.454 681.01 301.686 C 676.242 310.627 664.927 319.937 662.194 329.497 C 661.468 332.039 655.395 341.452 654.501 343.048"/>
    <path style="fill: none; stroke-width: 2px; stroke: rgb(51, 51, 51);" d="M 742.922 211.008 C 740.049 216.66 738.444 219.688 736.313 223.875 C 732.279 231.803 730.728 237.678 726.92 244.657 C 720.614 256.216 716.963 269.668 711.395 281.597 C 704.794 295.74 695.434 307.967 687.644 321.324 C 680.959 332.786 674.787 345.056 667.077 355.849 C 664.521 359.428 662.311 363.362 660.321 367.102 C 659.659 368.346 657.492 371.58 656.791 372.522"/>
    <path style="fill: none; stroke-width: 2px; stroke: rgb(51, 51, 51);" d="M 742.683 244.657 C 739.904 255.523 732.044 266.146 726.655 276.025 C 713.741 299.696 702.934 324.136 688.228 347.012 C 681.564 357.379 673.603 368.19 668.139 379.122 C 666.713 381.975 660.018 392.518 658.263 394.465"/>
    <path style="fill: none; stroke-width: 2px; stroke: rgb(51, 51, 51);" d="M 742.477 280.437 C 733.603 294.835 711.534 338.809 690.059 368.348 C 682.975 378.092 676.352 389.105 669.302 398.822 C 667.497 401.31 663.815 405.204 661.894 407.85 C 661.329 408.628 659.448 410.907 658.263 413.047"/>
    <path style="fill: none; stroke-width: 2px; stroke: rgb(51, 51, 51);" d="M 742.618 309.713 C 738.493 315.723 731.2 327.008 727 334.009 C 713.956 355.751 700.537 377.785 685.68 398.203 C 679.032 407.339 672.71 416.093 665.537 424.702 C 663.266 427.426 657.926 435.238 656.698 437.526"/>
    <path style="fill: none; stroke-width: 2px; stroke: rgb(51, 51, 51);" d="M 742.757 330.659 C 734.379 343.059 727.861 355.324 720.126 368.215 C 712.914 380.237 702.262 390.429 694.73 402.263 C 689.805 410 682.98 420.491 676.606 426.869 C 674.129 429.348 670.101 434.975 669.308 436.104"/>
    <path style="fill: none; stroke-width: 2px; stroke: rgb(51, 51, 51);" d="M 743.108 350.701 C 733.033 372.013 716.21 389.613 704.628 409.879 C 700.801 416.576 696.344 423.313 691.416 429.113 C 689.833 430.976 688.647 432.596 685.893 435.886"/>
    <path style="fill: none; stroke-width: 2px; stroke: rgb(51, 51, 51);" d="M 744.302 370.392 C 736.218 386.224 726.064 400.839 716.146 415.717 C 712.733 420.837 709.809 426.038 705.686 430.635 C 704.362 432.112 702.784 434.803 701.311 436.708"/>
    <path style="fill: none; stroke-width: 2px; stroke: rgb(51, 51, 51);" d="M 745.557 389.193 C 737.87 399.185 731.619 411.417 725.494 422.444 C 723.532 425.977 717.281 434.396 715.997 436.716"/>
    <path style="fill: none; stroke-width: 2px; stroke: rgb(51, 51, 51);" d="M 746.008 404.931 C 741.4 411.758 738.158 418.519 733.793 425.377 C 732.064 428.095 729.861 432.446 728.141 435.355"/>
    <path style="fill: none; stroke-width: 2px; stroke: rgb(51, 51, 51);" d="M 746.618 421.397 C 744.34 424.823 739.012 432.32 737.84 434.132"/>
  </g>
  <path style="stroke-width: 2px; fill: rgb(255, 255, 255); stroke: rgb(51, 51, 51);" d="M 660.618 272.704 C 659.23 272.611 651.188 274.005 650.701 273.52 C 647.917 270.744 649.762 249.636 649.762 244.872 C 649.762 243.585 650.089 226.834 650.089 226.834 C 650.089 226.834 668.396 223.329 669.311 225.16 C 670.989 228.521 669.519 229.86 669.567 234.113 C 669.59 236.135 668.691 239.496 670.12 238.065 C 673.985 234.194 671.739 226.887 683.105 229.16 C 687.221 229.983 688.328 234.883 688.886 238.233 C 689.147 239.805 689.281 242.925 690.705 242.212 C 694.626 240.249 696.074 222.735 706.489 230.547 C 714.531 236.579 713.126 253.185 713.998 261.889 C 714.146 263.36 714.423 270.061 713.739 270.743 C 713.024 271.456 709.458 271.458 708.448 271.357 C 707.472 271.26 700.812 270.822 700.613 270.424 C 699.289 267.773 704.295 251.435 697.96 249.85 C 695.142 249.145 694.911 253.325 694.623 255.158 C 693.534 262.094 693.263 265.521 693.177 270.438 C 693.157 271.558 683.277 270.794 683.023 270.541 C 682.305 269.824 682.638 266.598 683.007 262.706 C 683.737 254.998 684.746 247.856 677.723 247.995 C 670.769 248.133 677.21 265.792 673.786 271.72 C 673.479 272.252 669.44 272.56 666.394 272.615 L 660.618 272.704 Z"/>
  <path style="stroke-width: 2px; fill: rgb(255, 255, 255); stroke: rgb(51, 51, 51);" d="M 702.991 278.449 C 689.819 273.693 663.383 294.219 678.463 312.648 C 687.584 323.794 712.56 315.173 714.506 301.544 C 715.938 285.537 714.858 282.734 702.991 278.449 Z"/>
  <path style="stroke-width: 2px; fill: rgb(255, 255, 255); stroke: rgb(51, 51, 51);" d="M 694.675 291.361 C 687.786 293.198 684.534 300.01 693.323 302.939 C 698.991 304.828 703.258 298.324 700.914 293.634 C 696.948 290.272 694.675 291.361 694.675 291.361 Z"/>
  <path style="stroke-width: 2px; fill: rgb(255, 255, 255); stroke: rgb(51, 51, 51);" d="M 708.92 325.468 C 703.421 325.468 697.756 325.25 692.264 325.13 C 689.337 325.066 685.25 323.229 685.25 325.59 C 685.25 327.334 685.301 330.997 685.571 333.158 C 685.693 334.13 685.928 337.94 686.515 338.527 C 687.812 339.823 697.318 337.566 700.023 338.649 C 702.399 339.6 702.007 356.881 701.288 360.115 C 700.248 364.799 696.878 368.674 692.351 365.053 C 690.951 363.933 690.516 361.795 690.262 360.054 C 689.83 357.094 687.522 360.218 686.156 361.198 C 684.97 362.049 681.951 364.55 682.271 365.747 C 683.05 368.662 685.642 374.978 690.106 376.602 C 712.566 384.77 714.812 357.548 713.817 342.608 C 713.538 338.414 711.678 326.733 710.389 326.733 L 708.92 325.468 Z"/>
  <path style="stroke-width: 2px; fill: rgb(255, 255, 255); stroke: rgb(51, 51, 51);" d="M 704.248 386.588 C 684.707 376.981 661.876 415.911 684.436 426.328 C 698.378 432.765 713.366 419.384 714.514 405.597 C 715.343 395.942 712.549 390.669 704.248 386.588 Z"/>
  <path style="stroke-width: 2px; fill: rgb(255, 255, 255); stroke: rgb(51, 51, 51);" d="M 693.715 400.194 C 688.263 400.259 686.459 410.754 691.089 413.84 C 693.739 415.608 703.323 410.594 700.705 406.328 C 696.347 400.532 693.715 400.194 693.715 400.194 Z"/>
  <path style="fill: none; stroke-width: 2px; stroke: rgb(51, 51, 51);" d="M 289.476 319.214 C 291.091 321.606 290.793 324.629 291.226 327.518 C 291.499 329.337 291.685 331.185 291.765 333.039 C 292.574 351.656 292.006 319.037 300.788 321.234 C 305.244 322.348 304.766 338.651 304.873 338.651 C 305.174 338.651 307.534 323.666 312.415 322.446 C 319.2 320.749 319.94 339.572 319.866 339.279"/>
  <path style="fill: none; stroke-width: 2px; stroke: rgb(51, 51, 51);" d="M 335.683 368.526 C 325.893 377.296 336.908 395.838 349.109 385.926 C 361.843 375.581 350.583 357.045 336.674 367.477 L 335.683 368.526 Z"/>
  <path style="fill: none; stroke-width: 2px; stroke: rgb(51, 51, 51);" d="M 301.237 402.977 C 303.631 405.535 307.928 404.783 311.248 404.368 C 311.478 404.34 315.557 403.481 315.557 403.695 C 315.557 411.543 319.631 420.427 316.904 428.609 C 313.594 438.537 300.498 439.372 296.659 429.776"/>
  <path style="fill: none; stroke-width: 2px; stroke: rgb(51, 51, 51);" d="M 264.329 366.598 C 256.676 371.715 262.809 388.906 272.997 385.51 C 292.978 378.85 273.912 362.635 266.905 365.206 L 264.329 366.598 Z"/>
  <path style="fill: none; stroke-width: 2px; stroke: rgb(51, 51, 51);" d="M 253.968 317.148 C 257.232 328.029 268.111 335.814 275.291 344.127 C 290.631 361.887 307.86 377.839 324.715 394.089 C 332.818 401.901 341.489 408.876 349.27 417.027 C 351.909 419.793 354.975 422.059 357.664 424.748 C 357.95 425.034 361.506 429.525 361.749 429.282 C 362.14 428.891 360.204 426.146 359.999 425.736"/>
  <path style="fill: none; stroke-width: 2px; stroke: rgb(51, 51, 51);" d="M 358.831 317.642 C 343.813 329.323 333.699 345.944 321.034 360.018 C 312.018 370.037 301.655 379.315 293.247 389.824 C 287.864 396.552 262.278 423.919 262.542 423.806"/>
  <path style="fill: none; stroke-width: 2px; stroke: rgb(51, 51, 51);" d="M 478.559 331.692 C 479.099 335.339 479.723 338.648 479.814 342.458 C 479.869 344.764 479.854 347.072 479.854 349.38 C 479.854 372.229 481.597 333.078 491.755 335.618 C 496.334 336.763 496.374 346.814 496.531 350.271 C 496.623 352.295 495.382 357.775 496.814 356.342 C 501.351 351.802 498.404 338.57 507.096 336.832 C 512.361 335.779 512.498 347.398 512.682 350.513 C 512.809 352.672 514.527 357.135 513.41 356.018"/>
  <path style="fill: none; stroke-width: 2px; stroke: rgb(51, 51, 51);" d="M 523.246 335.011 C 515.442 340.214 521.314 358.463 529.723 353.792 C 536.01 350.299 536.522 336.439 528.225 334.93 C 526.645 334.642 517.606 336.493 519.279 338.168"/>
  <path style="fill: none; stroke-width: 2px; stroke: rgb(51, 51, 51);" d="M 540.652 335.942 C 543.156 336.489 548.62 334.36 550.326 335.213 C 552.668 336.384 550.014 340.45 550.123 343.066 C 550.388 349.406 555.282 362.611 551.581 367.959 C 546.966 374.628 540.426 368.234 541.623 362.252"/>
  <path style="fill: none; stroke-width: 2px; stroke: rgb(51, 51, 51);" d="M 564.169 337.399 C 557.628 342.85 557.059 360.887 568.865 358.204 C 578.055 356.116 580.099 343.276 572.67 338.168 C 567.122 334.354 565.562 338.532 561.7 338.532"/>
  <path style="fill: none; stroke-width: 2px; stroke: rgb(51, 51, 51);" d="M 584.934 355.29 C 583.889 361.3 592.374 359.362 591.128 353.144 C 590.039 347.719 582.726 354.844 584.489 354.844"/>
  <path style="fill: none; stroke-width: 2px; stroke: rgb(51, 51, 51);" d="M 441.643 383.826 C 436.276 385.322 427.298 393.928 435.085 398.6 C 436.983 399.739 444.071 402.468 444.071 398.681"/>
  <path style="fill: none; stroke-width: 2px; stroke: rgb(51, 51, 51);" d="M 456.174 386.902 C 451.367 389.62 448.503 401.936 457.105 400.503 C 475.417 397.451 452.207 376.697 452.207 390.667"/>
  <path style="fill: none; stroke-width: 2px; stroke: rgb(51, 51, 51);" d="M 470.22 385.202 C 470.598 387.093 470.808 388.88 470.989 390.788 C 471.11 392.058 471.252 393.322 471.353 394.593 C 472.459 408.406 470.834 383.493 477.668 385.202 C 482.254 386.349 480.982 401.164 482.161 397.629"/>
  <path style="fill: none; stroke-width: 2px; stroke: rgb(51, 51, 51);" d="M 498.554 383.259 C 497.182 383.917 495.936 384.329 494.588 384.919 C 481.994 390.429 499.984 392.324 500.295 395.443 C 500.606 398.559 492.868 404.077 491.754 400.179"/>
  <path style="fill: none; stroke-width: 2px; stroke: rgb(51, 51, 51);" d="M 507.864 386.578 C 507.984 388.854 507.975 399.024 512.115 398.195 C 515.218 397.574 516.489 392.388 517.498 389.938 C 518.037 388.628 517.792 384.888 518.793 385.89 C 521.451 388.551 521.082 400.718 520.048 397.102"/>
  <path style="fill: none; stroke-width: 2px; stroke: rgb(51, 51, 51);" d="M 525.998 375.69 C 528.993 380.556 527.522 388.52 528.063 394.107 C 528.143 394.938 529.318 405.963 529.318 402.203"/>
  <path style="fill: none; stroke-width: 2px; stroke: rgb(51, 51, 51);" d="M 542.513 375.407 C 541.992 381.316 544.213 403.457 544.213 401.231"/>
  <path style="fill: none; stroke-width: 2px; stroke: rgb(51, 51, 51);" d="M 552.835 384.636 C 548.564 384.78 543.925 385.918 539.801 387.064 C 537.81 387.618 531.582 387.833 533.649 387.833"/>
  <path style="fill: none; stroke-width: 2px; stroke: rgb(51, 51, 51);" d="M 552.835 384.636 C 553.44 387.995 553.797 405.777 553.159 401.312"/>
  <path style="fill: none; stroke-width: 2px; stroke: rgb(51, 51, 51);" d="M 559.433 384.474 C 559.289 386.77 559.621 389.021 559.716 391.314 C 559.778 392.799 559.805 394.288 559.919 395.767 C 561.065 410.664 560.624 385.019 569.188 387.874 C 573.056 389.163 571.364 402.921 570.483 402.041"/>
  <path style="fill: none; stroke-width: 2px; stroke: rgb(51, 51, 51);" d="M 585.622 388.117 C 580.135 385.752 571.855 394.105 578.053 398.236 C 590.644 406.627 584.454 379.567 587.282 394.269 C 587.548 395.653 587.724 397.045 587.929 398.438 C 588.259 400.679 588.573 402.895 588.739 405.157 C 589.244 412.063 588.912 421.019 583.801 426.327 C 582.216 427.973 571.126 434.285 570.119 429.241"/>
  <path style="fill: none; stroke-width: 2px; stroke: rgb(51, 51, 51);" d="M 532.03 362.252 C 522.541 364.685 511.493 363.385 501.753 363.385 C 499.629 363.385 486.835 365.452 487.262 364.599"/>
  <path style="fill: none; stroke-width: 2px; stroke: rgb(51, 51, 51);" d="M 577.972 363.911 C 574.147 364.314 556.081 367.185 559.15 364.883"/>
  <path style="fill: none; stroke-width: 2px; stroke: rgb(51, 51, 51);" d="M 580.158 410.055 C 547.144 411.056 514.092 408.97 481.149 411.027 C 470.546 411.689 458.589 411.168 448.241 413.051 C 445.309 413.584 431.258 413.212 433.993 413.212"/>
  <path style="fill: none; stroke-width: 2px; stroke: rgb(51, 51, 51);" d="M 745.477 56.729 C 747.526 59.675 747.71 63.359 748.432 66.848 C 748.898 69.103 749.382 71.354 749.848 73.608 C 754.738 97.239 748.343 56.382 761.182 59.886 C 766.254 61.271 768.438 69.43 769.075 73.891 C 769.413 76.252 768.4 82.661 770.087 80.975 C 774.284 76.782 769.963 62.518 777.049 59.684 C 784.439 56.728 786.184 78.183 787.005 80.91"/>
  <path style="fill: none; stroke-width: 2px; stroke: rgb(51, 51, 51);" d="M 798.253 59.972 C 796.316 62.134 794.45 64.46 793.792 67.423 C 787.434 96.037 838.99 78.181 817.147 60.582 C 814.661 58.579 809.887 55.461 806.193 55.917 C 803.41 56.549 800.133 57.873 798.253 59.972 Z"/>
  <path style="fill: none; stroke-width: 2px; stroke: rgb(51, 51, 51);" d="M 864 45.153 C 859.408 50.252 852.488 56.474 848.687 60.276 C 834.043 74.92 816.095 93.382 804.179 110.263 C 799.576 116.784 792.996 124.87 790.992 126.66 C 788.679 128.727 785.848 132.905 782.472 136.727"/>
  <path style="fill: none; stroke-width: 2px; stroke: rgb(51, 51, 51);" d="M 824.963 111.296 C 829.04 112.03 833.425 110.615 837.511 110.082 C 839.361 109.841 844.294 107.548 842.975 108.868 C 841.007 110.837 843.016 118.243 843.218 120.565 C 844.008 129.651 848.881 142.553 842.368 150.842 C 831.359 164.853 822.575 148.884 822.575 138.861"/>
  <path style="fill: none; stroke-width: 2px; stroke: rgb(51, 51, 51);" d="M 855.24 115.151 C 853.309 118.047 853.119 120.544 852.771 124.016 C 851.622 135.506 863.905 141.927 873.172 135.512 C 878.695 131.687 879.202 122.443 877.827 116.487 C 877.034 113.052 875.267 108.328 871.553 106.935 C 866.249 104.945 863.757 107.13 859.37 109.293 C 857.374 111.383 856.63 112.337 855.24 115.151 Z"/>
  <path style="fill: none; stroke-width: 2px; stroke: rgb(51, 51, 51);" d="M 871.189 48.278 C 866.094 55.028 865.073 57.028 859.348 61.8 C 844.627 74.068 828.45 93.513 816.888 108.93 C 811.007 116.772 804.85 123.526 799.209 131.674 C 796.99 134.879 793.696 137.662 790.178 141.763"/>
  <path style="fill: none; stroke-width: 2px; stroke: rgb(51, 51, 51);" d="M 777.189 238.43 C 777.283 240.837 779.029 253.718 779.3 256.159 C 779.931 261.836 780.962 263.074 781.529 268.657 C 781.82 271.523 781.721 261.997 782.116 258.049 C 782.861 250.606 786.747 241.657 794.893 238.944 C 802.732 236.332 807.602 254.749 808.02 257.886 C 808.432 260.976 808.914 270.79 809.18 267.152 C 810.707 246.255 815.449 240.768 822.127 239.932 C 831.996 238.697 832.278 264.616 832.708 268.965"/>
  <path style="fill: none; stroke-width: 2px; stroke: rgb(51, 51, 51);" d="M 846.383 247.701 C 843.76 253.577 843.401 253.711 844.978 260.54 C 849.096 278.382 873.007 266.142 872.071 251.157 C 871.629 244.079 863.853 239.03 856.766 239.675 C 851.301 241.557 846.383 247.701 846.383 247.701 Z"/>
  <path style="fill: none; stroke-width: 2px; stroke: rgb(51, 51, 51);" d="M 800.386 290.95 C 804.499 291.224 826.3 287.865 828.468 290.032 C 833.051 294.616 830.069 332.447 825.504 338.151 C 821.381 343.304 806.461 347.347 802.291 339.844 C 799.887 335.518 802.694 329.059 801.162 324.463"/>
  <path style="fill: none; stroke-width: 2px; stroke: rgb(51, 51, 51);" d="M 845.292 310.077 C 848.837 318.667 861.606 320.819 867.909 314.515 C 873.744 308.678 872.323 295.838 864.945 292.149 C 860.04 289.697 855.629 289.991 850.763 291.937 C 845.074 295.119 844.38 297.438 843.32 301.275 C 842.568 303.995 845.292 310.077 845.292 310.077 Z"/>
  <path style="fill: none; stroke-width: 2px; stroke: rgb(51, 51, 51);" d="M 898.742 209.106 C 897.783 228.59 896.794 248.047 895.496 267.525 C 895.059 274.089 894.283 280.918 894.579 287.492 C 894.637 288.779 895.284 302.372 895.354 306.538"/>
  <path style="stroke-width: 2px; stroke: rgb(51, 51, 51);" d="M 892.177 323.097 C 898.566 324.558 898.405 323.614 899.755 320.124 C 901.559 315.463 897.517 313.285 894.033 313.912 C 888.076 316.565 888.603 320.713 892.177 323.097 Z"/>
  <path style="fill: none; stroke-width: 2px; stroke: rgb(51, 51, 51);" d="M 906.681 364.143 C 899.147 364.157 876.216 364.624 872.612 364.872 C 856.214 366.002 823.536 361.29 799.046 362.775 C 793.916 363.086 776.273 363.068 769.559 363.742"/>
  <path style="fill: none; stroke-width: 2px; stroke: rgb(51, 51, 51);" d="M 906.394 384 C 898.375 384 893.275 385.451 885.195 385.141 C 862.298 384.26 839.546 385.635 816.685 385.635 C 806.587 385.635 794.896 385.286 784.884 384 C 778.22 383.144 774.796 384 769.929 384"/>
  <path style="fill: none; stroke-width: 2px; stroke: rgb(51, 51, 51);" d="M 62.222 310.309 C 62.222 314.027 62.452 317.688 62.716 321.386 C 62.886 323.762 62.777 326.227 63.139 328.583 C 67.001 353.683 62.038 312.741 75.487 317.223 C 80.69 318.957 74.714 337.259 78.591 333.38 C 83.175 328.795 77.046 316.553 87.411 314.824 C 90.849 314.251 95.031 340.619 95.031 337.684"/>
  <path style="fill: none; stroke-width: 2px; stroke: rgb(51, 51, 51);" d="M 107.398 342.533 C 100.283 350.147 102.501 352.356 102.585 355.499 C 103.216 379.164 142.962 358.036 127.154 344.862 C 119.95 338.858 111.615 338.02 107.398 342.533 Z"/>
  <path style="fill: none; stroke-width: 2px; stroke: rgb(51, 51, 51);" d="M 134.26 370.21 C 138.754 369.761 152.253 368.799 147.736 368.799 C 145.466 368.799 149.125 380.594 149.43 381.569 C 151.679 388.768 154.737 402.852 150.488 409.65 C 142.12 423.039 132.743 403.512 131.156 397.162"/>
  <path style="fill: none; stroke-width: 2px; stroke: rgb(51, 51, 51);" d="M 166.646 407.604 C 158.356 419.44 163.732 437.808 179.275 433.921 C 192.031 430.731 193.91 409.736 182.732 404.147 C 172.788 398.718 166.646 407.604 166.646 407.604 Z"/>
  <path style="fill: none; stroke-width: 2px; stroke: rgb(51, 51, 51);" d="M 60.645 347.349 C 87.738 376.135 103.932 394.49 131.791 422.35 C 135.09 425.649 156.797 447.172 161.001 445.069 C 161.147 444.996 149.602 445.174 148.677 444.943 C 142.92 443.504 137.529 444.195 131.629 443.773 C 112.758 442.425 102.486 440.757 83.678 440.757 C 78.934 440.757 73.749 440.892 69.061 441.148 C 65.11 441.364 68.468 441.191 59.367 441.618 C 57.91 441.686 58.857 436.321 59.128 433.607 C 59.609 428.799 58.901 423.789 58.901 418.944 C 58.901 402.435 57.648 387.728 56.777 370.987 C 56.524 366.119 54.47 340.726 56.578 342.835 L 60.645 347.349 Z"/>
  <path style="fill: none; stroke-width: 2px; stroke: rgb(51, 51, 51);" d="M 78.324 289.589 C 81.487 287.876 88.994 288.041 96.438 288.001 C 102.103 287.971 113.477 288.908 119.191 289.518 C 129.314 290.598 137.152 290.13 147.183 290.586 C 161.992 291.26 171.058 291.065 186.997 291.619 C 189.655 291.711 199.682 290.413 201.335 292.064 C 202.34 293.068 201.952 316.879 201.952 319.764 C 201.952 338.45 203.786 356.984 203.786 375.714 C 205.504 404.744 203.798 405.508 193.607 392.952 C 186.17 383.789 170.563 371.457 162.033 362.199 C 137.162 335.205 109.001 319.211 78.324 289.589 Z"/>
  <path style="fill: none; stroke-width: 2px; stroke: rgb(51, 51, 51);" d="M 96.341 194.523 C 96.468 195.66 96.405 198.417 96.595 199.558 C 98.5 210.993 97.489 194.409 103.798 195.311 C 106.35 195.675 104.487 204.447 106.31 202.624 C 107.476 201.458 107.653 194.082 110.151 194.498 C 113.329 195.028 111.229 205.645 112.552 203.991"/>
  <path style="fill: none; stroke-width: 2px; stroke: rgb(51, 51, 51);" d="M 119.02 197.958 C 116.7 201.253 117.152 208.581 123.745 205.284 C 129.34 202.486 125.992 195.713 121.468 196.639 C 119.315 197.319 120.28 196.985 119.02 197.958 Z"/>
  <path style="fill: none; stroke-width: 2px; stroke: rgb(51, 51, 51);" d="M 103.613 214.924 C 112.268 214.924 113.834 212.342 113.106 225.415 C 112.794 231.033 103.105 233.322 103.946 229.958"/>
  <path style="fill: none; stroke-width: 2px; stroke: rgb(51, 51, 51);" d="M 119.788 216.851 C 118.2 218.599 118.551 219.066 118.462 220.502 C 117.831 230.713 132.183 222.698 126.072 216.587 C 124.306 214.821 122.798 215.648 121.697 215.86 C 120.796 216.112 120.751 216.356 119.788 216.851 Z"/>
  <path style="fill: none; stroke-width: 2px; stroke: rgb(51, 51, 51);" d="M 143.345 214.566 C 143.345 214.566 143.632 189.894 134.79 182.157 C 121.644 170.654 94.225 177.383 85.108 191.059 C 78.792 200.533 80.024 218.337 83.224 228.735 C 88.735 246.643 124.986 249.055 135.567 238.753 C 143.726 228.436 141.621 230.176 143.345 214.566 Z"/>
  <path style="fill: none; stroke-width: 2px; stroke: rgb(51, 51, 51);" d="M 500.723 153.972 C 502.099 148.467 504.17 142.784 506.422 137.153 C 508.023 133.151 509.492 129.101 511.228 125.196 C 512.354 122.661 514.199 120.779 515.754 118.602 C 533.427 93.857 521.118 149.334 521.118 149.334 C 521.118 149.334 522.923 141.937 523.353 141.4 C 527.357 136.395 534.578 110.876 543.134 113.015 C 551.949 115.218 544.111 159.98 541.401 151.849"/>
  <path style="fill: none; stroke-width: 2px; stroke: rgb(51, 51, 51);" d="M 566.323 121.675 C 555.891 127.314 557.381 157.918 572.525 156.542 C 586.067 155.312 594.329 119.061 580.404 115.082 C 574.231 113.318 562.225 123.818 561.405 123.408"/>
  <path style="fill: none; stroke-width: 2px; stroke: rgb(51, 51, 51);" d="M 597.167 112.121 C 602.126 113.237 608.032 113.518 613.148 113.518 C 615.61 113.518 622.153 110.435 620.412 112.176 C 611.997 120.594 611.816 140.963 607.672 152.016 C 603.226 163.873 597.167 147.498 597.167 143.132"/>
  <path style="fill: none; stroke-width: 2px; stroke: rgb(51, 51, 51);" d="M 639.801 115.194 C 629.209 119.108 622.857 130.261 621.865 141.176 C 621.375 146.568 623.767 156.589 631.14 155.536 C 644.127 153.682 663 127.666 650.585 115.25 C 646.047 110.711 638.031 117.15 633.878 117.15"/>
  <path style="fill: none; stroke-width: 2px; stroke: rgb(51, 51, 51);" d="M 653.435 168.835 C 619.998 160.968 583.634 167.271 549.839 167.271 C 537.808 167.271 526.691 166.179 514.748 167.885 C 511.255 168.384 496.414 167.773 499.214 167.773"/>
  <path style="fill: none; stroke-width: 2px; stroke: rgb(51, 51, 51);" d="M 655.614 98.263 C 621.56 97.506 586.862 96.419 552.633 96.419 C 541.934 96.419 526.388 100.015 516.201 96.196 C 513.811 95.3 495.828 97.761 504.411 97.761"/>
  <path style="fill: none; stroke-width: 2px; stroke: rgb(51, 51, 51);" d="M 369.839 177.157 C 364.301 186.157 368.419 190.225 377.159 193.138 C 380.585 194.279 387.385 185.951 387.385 189.562 C 387.385 204.929 389.487 223.194 387.105 238.677 C 386.228 244.381 386.658 250.327 386.658 256.054 C 386.658 258.981 386.323 264.827 386.323 264.827 C 386.323 264.827 379.597 260.604 377.494 261.865 C 372.242 265.015 374.421 271.324 374.421 275.499 C 374.421 277.063 371.403 274.494 369.839 274.494 C 366.325 274.494 353.892 274.236 350.391 273.6 C 340.395 271.783 327.965 271.881 317.832 272.661 C 286.4 275.08 260.384 272.714 229.176 269.592 C 225.117 269.186 208.122 270.295 205.728 267.9 C 203.57 265.742 213.304 257.429 208.577 252.702 C 206.723 250.847 203.436 249.495 200.866 250.523 C 200.035 250.855 196.808 253.973 196.731 253.819 C 193.061 246.475 197.114 227.713 196.452 219.12 C 196.149 215.181 190.028 185.343 192.652 184.03 C 195.695 182.508 201.529 187.446 206.231 182.745 C 209.591 179.385 210.037 165.135 206.678 168.496 C 206.534 168.64 221.589 169.785 224.447 170.005 C 237.45 171.006 250.633 170.415 263.728 171.234 C 285.184 172.576 308.646 170.308 329.552 172.631 C 332.75 172.987 348.092 172.759 351.566 172.828 C 360.786 173.331 369.839 177.157 369.839 177.157 Z"/>
</svg>