<?xml version="1.0" encoding="utf-8"?>
<svg viewBox="0 0 960 480" xmlns="http://www.w3.org/2000/svg">
  <path style="fill: none; stroke-linecap: round; stroke-width: 2px; stroke: rgb(237, 69, 156);" d="M 217.802 291.768 C 212.665 297.932 207.958 304.653 202.596 310.99 C 200.522 313.442 197.156 321.412 197.156 320.805"/>
  <path style="fill: none; stroke-linecap: round; stroke-width: 2px; stroke: rgb(237, 69, 156);" d="M 194.97 294.361 C 199.328 299.835 220.386 323.833 216.531 321.261"/>
  <path style="fill: none; stroke-linecap: round; stroke-width: 2px; stroke: rgb(51, 51, 51);" d="M 207.988 152.025 C 213.656 160.641 205.388 183.497 210.835 188.945"/>
  <path style="fill: none; stroke-linecap: round; stroke-width: 2px; stroke: rgb(51, 51, 51);" d="M 217.192 180.402 C 215.077 201.548 204.014 181.164 198.631 181.164"/>
  <path style="fill: none; stroke-linecap: round; stroke-width: 2px; stroke: rgb(51, 51, 51);" d="M 58.276 163.824 C 65.918 167.362 85.006 187.907 82.635 181.979"/>
  <path style="fill: none; stroke-linecap: round; stroke-width: 2px; stroke: rgb(51, 51, 51);" d="M 76.227 171.198 C 77.911 171.96 86.39 183.411 85.28 184.521 C 83.019 186.78 68.393 186.146 68.549 186.3"/>
  <path style="fill: none; stroke-linecap: round; stroke-width: 2px; stroke: rgb(51, 51, 51);" d="M 57.564 307.48 C 64.691 311.22 92.512 306.12 90.568 304.175"/>
  <path style="fill: none; stroke-linecap: round; stroke-width: 2px; stroke: rgb(68, 68, 68);" d="M 79.94 296.801 C 89.409 304.992 101.634 300.635 91.636 310.634 C 90.759 311.51 88.447 315.515 87.517 315.515"/>
  <path style="fill: none; stroke-linecap: round; stroke-width: 2px; stroke: rgb(51, 51, 51);" d="M 71.396 423.779 C 71.396 429.202 86.663 420.311 89.653 424.796 C 90.492 426.056 86.155 442.035 87.873 442.035 C 88.431 442.035 88.483 436.037 88.483 435.678 C 88.483 432.338 86.043 426.071 86.043 425.05 C 87.203 432.402 58.358 459.809 61.379 457.392"/>
  <path style="fill: none; stroke-linecap: round; stroke-width: 2px; stroke: rgb(51, 51, 51);" d="M 207.428 424.694 C 208.87 424.875 210.53 468.971 210.53 461.511"/>
  <path style="fill: none; stroke-linecap: round; stroke-width: 2px; stroke: rgb(51, 51, 51);" d="M 219.073 431.864 C 217.197 430.909 209.309 422.825 207.733 423.219 C 203.805 424.203 201.808 438.746 197.969 436.187"/>
  <path style="fill: none; stroke-linecap: round; stroke-width: 2px; stroke: rgb(51, 51, 51);" d="M 59.853 25.303 C 66.471 33.814 72.956 43.161 77.6 52.966 C 80.219 58.492 87.816 63.24 84.008 63.24"/>
  <path style="fill: none; stroke-linecap: round; stroke-width: 2px; stroke: rgb(51, 51, 51);" d="M 84.822 52.102 C 85.928 53.763 87.528 68.368 85.584 69.341 C 84.209 70.028 72.006 61.721 72.006 62.577"/>
  <path style="fill: none; stroke-linecap: round; stroke-width: 2px; stroke: rgb(51, 51, 51);" d="M 203.481 17.639 C 204.198 26.961 203.798 36.201 203.798 45.642 C 203.798 48.869 203.904 52.09 203.904 55.317 C 203.904 56.226 204.01 59.957 204.01 59.767"/>
  <path style="fill: none; stroke-linecap: round; stroke-width: 2px; stroke: rgb(51, 51, 51);" d="M 214.64 45.042 C 211.235 48.275 207.386 60.178 203.091 61.252 C 200.634 61.865 192.924 54.749 190.519 53.375"/>
  <path style="fill: none; stroke-linecap: round; stroke-width: 2px; stroke: rgb(51, 51, 51);" d="M 341.665 30.317 C 336.347 37.568 331.702 44.967 326.904 52.562 C 325.289 55.121 323.557 57.746 321.643 60.085 C 321.222 60.6 319.065 64.08 319.065 63.299"/>
  <path style="fill: none; stroke-linecap: round; stroke-width: 2px; stroke: rgb(51, 51, 51);" d="M 330.012 58.99 C 328.212 58.653 324.96 61.829 323.514 62.734 C 308.876 71.881 316.107 65.579 310.66 54.682"/>
  <path style="fill: none; stroke-linecap: round; stroke-width: 2px; stroke: rgb(51, 51, 51);" d="M 353.497 162.354 C 344.685 164.419 334.686 177.089 328.671 183.26 C 327.308 184.657 316.548 196.448 318.535 192.476"/>
  <path style="fill: none; stroke-linecap: round; stroke-width: 2px; stroke: rgb(51, 51, 51);" d="M 334.78 194.031 C 331.717 193.117 317.776 198.215 316.7 197.139 C 314.687 195.126 323.428 179.142 318.571 177.927"/>
  <path style="fill: none; stroke-linecap: round; stroke-width: 2px; stroke: rgb(51, 51, 51);" d="M 362.114 306.293 C 358.412 304.275 352.681 305.99 348.623 306.224 C 336.994 306.888 325.024 305.777 313.661 307.67 C 311.063 308.104 306.745 306.325 305.292 307.776"/>
  <path style="fill: none; stroke-linecap: round; stroke-width: 2px; stroke: rgb(51, 51, 51);" d="M 319.772 297.606 C 315.951 304.451 307.75 305.637 302.855 310.53 C 300.651 312.735 308.236 313.68 310.942 315.228 C 313.278 316.562 318.77 323.861 316.594 320.595"/>
  <path style="fill: none; stroke-linecap: round; stroke-width: 2px; stroke: rgb(51, 51, 51);" d="M 362.819 460.12 C 348.804 450.867 337.419 437.833 322.949 429.151 C 319.012 426.787 315.368 424.559 312.285 421.133 C 311.4 420.152 308.084 415.693 307.728 416.049"/>
  <path style="fill: none; stroke-linecap: round; stroke-width: 2px; stroke: rgb(51, 51, 51);" d="M 323.196 417.32 C 316.831 419.441 304.082 409.695 298.794 413.223 C 297.526 414.071 304.76 427.745 300.207 428.656"/>
  <path style="fill: none; stroke-linecap: round; stroke-width: 2px; stroke: rgb(51, 51, 51);" d="M 494.118 450.728 C 494.585 447.164 484.974 443.577 482.183 442.181 C 470.881 436.53 448.662 420.852 443.125 420.852"/>
  <path style="fill: none; stroke-linecap: round; stroke-width: 2px; stroke: rgb(51, 51, 51);" d="M 462.477 417.744 C 456.871 420.064 440.168 417.839 436.415 421.592 C 435.879 422.129 444.569 432.921 443.832 431.446"/>
  <path style="fill: none; stroke-linecap: round; stroke-width: 2px; stroke: rgb(51, 51, 51);" d="M 496.978 306.257 C 487.285 303.628 473.019 304.556 462.936 304.915 C 460.399 305.007 451.345 306.819 450.505 306.399"/>
  <path style="fill: none; stroke-linecap: round; stroke-width: 2px; stroke: rgb(51, 51, 51);" d="M 459.087 295.841 C 456.727 299.798 452.88 302.185 449.587 305.305 C 449.315 305.561 444.954 309.323 445.138 309.507 C 446.223 310.593 457.311 312.345 457.179 312.085"/>
  <path style="fill: none; stroke-linecap: round; stroke-width: 2px; stroke: rgb(51, 51, 51);" d="M 487.056 164.331 C 479.769 169.482 472.641 174.638 464.526 178.846 C 462.575 179.857 450.987 185.767 454.672 185.767"/>
  <path style="fill: none; stroke-linecap: round; stroke-width: 2px; stroke: rgb(51, 51, 51);" d="M 472.048 186.897 C 469.081 187.321 466.079 187.391 463.113 187.639 C 461.275 187.792 459.31 188.426 457.498 188.804 C 444.14 191.587 456.015 181.822 456.015 172.136"/>
  <path style="fill: none; stroke-linecap: round; stroke-width: 2px; stroke: rgb(51, 51, 51);" d="M 488.963 22.405 C 480.222 30.866 473.267 43.177 462.971 50.339 C 459.648 52.65 458.081 56.121 456.191 59.555 C 455.335 61.112 453.155 65.711 453.155 63.934 C 453.155 62.823 454.501 61.366 454.744 60.155"/>
  <path style="fill: none; stroke-linecap: round; stroke-width: 2px; stroke: rgb(51, 51, 51);" d="M 470.953 60.085 C 468.03 58.814 453.426 66.642 453.365 66.583 C 453.267 66.483 454.756 61.408 454.814 61.004 C 455.153 58.634 457.347 42.063 455.767 40.485"/>
  <path style="fill: none; stroke-linecap: round; stroke-width: 2px; stroke: rgb(51, 51, 51);" d="M 622.028 159.882 C 614.744 166.93 603.527 171.525 595.118 177.292 C 591.948 179.467 581.248 185.661 584.206 185.661"/>
  <path style="fill: none; stroke-linecap: round; stroke-width: 2px; stroke: rgb(51, 51, 51);" d="M 599.392 186.685 C 597.519 186.614 580.856 188.959 580.747 188.627 C 580.037 186.498 582.051 180.37 582.406 178.069 C 582.554 177.097 583.006 172.952 583.006 173.3"/>
  <path style="fill: none; stroke-linecap: round; stroke-width: 2px; stroke: rgb(51, 51, 51);" d="M 618.744 33.353 C 613.315 40.41 601.295 43.384 594.625 49.562 C 593.586 50.522 583.962 59.166 587.139 58.108"/>
  <path style="fill: none; stroke-linecap: round; stroke-width: 2px; stroke: rgb(51, 51, 51);" d="M 601.334 56.695 C 598.24 57.049 585.158 63.085 583.042 60.968 C 581.993 59.92 585.268 55.116 585.372 53.976 C 585.555 51.966 585.652 49.85 586.326 49.172"/>
  <path style="fill: none; stroke-linecap: round; stroke-width: 2px; stroke: rgb(51, 51, 51);" d="M 625.242 305.552 C 615.803 305.922 606.385 305.486 596.955 306.363 C 595.284 306.519 581.769 308.802 582.688 306.964"/>
  <path style="fill: none; stroke-linecap: round; stroke-width: 2px; stroke: rgb(51, 51, 51);" d="M 591.411 295.487 C 588.101 300.288 578.486 302.223 576.65 307.741 C 576.143 309.258 589.575 317.555 589.575 315.016"/>
  <path style="fill: none; stroke-linecap: round; stroke-width: 2px; stroke: rgb(51, 51, 51);" d="M 626.972 449.102 C 610.5 439.999 585.935 439.423 572.553 426.043"/>
  <path style="fill: none; stroke-linecap: round; stroke-width: 2px; stroke: rgb(51, 51, 51);" d="M 587.243 421.31 C 585.249 429.729 567.396 423.536 563.76 427.174 C 563.261 427.671 567.421 430.916 567.679 431.198 C 568.707 432.319 574.777 441.933 572.093 438.579"/>
  <path style="fill: none; stroke-linecap: round; stroke-width: 2px; stroke: rgb(51, 51, 51);" d="M 756.932 31.175 C 757.093 29.558 741.705 37.597 739.545 38.603 C 731.064 42.561 709.253 54.016 710.583 55.345"/>
  <path style="fill: none; stroke-linecap: round; stroke-width: 2px; stroke: rgb(51, 51, 51);" d="M 725.009 56.314 C 722.005 57.917 719.267 58.887 716.073 59.921 C 713.981 60.597 711.832 61.137 709.721 61.75 C 693.347 66.504 705.9 58.406 701.647 49.909"/>
  <path style="fill: none; stroke-linecap: round; stroke-width: 2px; stroke: rgb(51, 51, 51);" d="M 878.429 31.498 C 865.438 38.644 852.893 46.049 840.153 53.623 C 838.037 54.882 819.628 66.625 823.628 63.958"/>
  <path style="fill: none; stroke-linecap: round; stroke-width: 2px; stroke: rgb(51, 51, 51);" d="M 845.538 65.196 C 838.302 67.456 820.617 75.72 813.4 73.916 C 812.468 73.683 816.393 57.333 818.084 56.207"/>
  <path style="fill: none; stroke-linecap: round; stroke-width: 2px; stroke: rgb(51, 51, 51);" d="M 890.433 164.835 C 877.888 171.201 863.555 173.469 850.975 179.961 C 849.14 180.908 826.831 189.139 834.825 186.475"/>
  <path style="fill: none; stroke-linecap: round; stroke-width: 2px; stroke: rgb(51, 51, 51);" d="M 855.335 186.96 C 852.36 187.988 829.837 194.281 828.042 191.588 C 827.443 190.69 830.358 180.407 830.358 178.185"/>
  <path style="fill: none; stroke-linecap: round; stroke-width: 2px; stroke: rgb(51, 51, 51);" d="M 756.716 164.027 C 745.137 168.619 733.275 175.068 722.533 181.415 C 719.611 183.143 704.285 190.638 707.729 189.489"/>
  <path style="fill: none; stroke-linecap: round; stroke-width: 2px; stroke: rgb(51, 51, 51);" d="M 721.08 190.082 C 708.494 197.588 698.792 191.913 709.614 181.092"/>
  <path style="fill: none; stroke-linecap: round; stroke-width: 2px; stroke: rgb(51, 51, 51);" d="M 761.668 305.062 C 752.382 308.675 738.616 304.582 728.724 304.901 C 726.451 304.975 709.573 305.171 714.781 305.171"/>
  <path style="fill: none; stroke-linecap: round; stroke-width: 2px; stroke: rgb(51, 51, 51);" d="M 719.842 299.626 C 717.151 302.167 705.315 305.295 704.609 308.83 C 703.966 312.04 712.697 314.919 714.727 315.774 C 715.991 316.306 719.739 319.474 719.949 318.843"/>
  <path style="fill: none; stroke-linecap: round; stroke-width: 2px; stroke: rgb(51, 51, 51);" d="M 896.73 306.785 C 887.979 310.286 842.246 310.525 842.792 310.661"/>
  <path style="fill: none; stroke-linecap: round; stroke-width: 2px; stroke: rgb(51, 51, 51);" d="M 850.759 301.457 C 848.274 307.257 837.256 305.109 833.102 309.261 C 830.089 312.273 840.773 312.994 844.461 315.129 C 846.767 316.464 848.192 320.752 847.637 319.92"/>
  <path style="fill: none; stroke-linecap: round; stroke-width: 2px; stroke: rgb(51, 51, 51);" d="M 766.676 451.965 C 751.852 448.461 739.171 443.179 726.247 434.955 C 723.238 433.04 709.738 430.582 713.92 427.796"/>
  <path style="fill: none; stroke-linecap: round; stroke-width: 2px; stroke: rgb(51, 51, 51);" d="M 722.049 425.211 C 719.706 424.333 704.455 419.446 702.508 421.39 C 702.182 421.714 706.539 437.111 708.968 436.139"/>
  <path style="fill: none; stroke-linecap: round; stroke-width: 2px; stroke: rgb(51, 51, 51);" d="M 902.437 448.951 C 887.647 440.884 871.624 436.85 855.603 431.51 C 850.066 429.663 842.248 426.985 837.57 423.865 C 836.624 423.234 835.31 417.352 837.893 419.291"/>
  <path style="fill: none; stroke-linecap: round; stroke-width: 2px; stroke: rgb(51, 51, 51);" d="M 850.491 413.96 C 845.793 417.585 835.135 415.052 831.918 418.268 C 828.934 421.251 835.897 429.966 837.786 431.564 C 838.956 432.553 840.683 435.798 840.37 435.171"/>
</svg>