<?xml version="1.0" encoding="utf-8"?>
<svg viewBox="0 0 50 135" xmlns="http://www.w3.org/2000/svg">
  <g transform="matrix(1, 0, 0, 1, -0.52, 1.812)">
    <path d="M 37.004 6.188 C 39.98 6.188 42.302 7.07 43.97 8.834 C 45.638 10.598 46.472 13.148 46.472 16.484 L 46.472 31.892 L 39.344 31.892 L 39.344 16.7 C 39.344 15.188 38.948 14.042 38.156 13.262 C 37.364 12.482 36.308 12.092 34.988 12.092 C 33.572 12.092 32.45 12.506 31.622 13.334 C 30.794 14.162 30.38 15.404 30.38 17.06 L 30.38 31.892 L 23.252 31.892 L 23.252 16.7 C 23.252 15.188 22.886 14.042 22.154 13.262 C 21.422 12.482 20.42 12.092 19.148 12.092 C 17.78 12.092 16.688 12.506 15.872 13.334 C 15.056 14.162 14.648 15.404 14.648 17.06 L 14.648 31.892 L 7.52 31.892 L 7.52 6.692 L 14.432 6.692 L 14.432 9.5 C 15.2 8.42 16.19 7.598 17.402 7.034 C 18.614 6.47 20.024 6.188 21.632 6.188 C 23.288 6.188 24.734 6.488 25.97 7.088 C 27.206 7.688 28.208 8.564 28.976 9.716 C 29.84 8.564 30.968 7.688 32.36 7.088 C 33.752 6.488 35.3 6.188 37.004 6.188 Z" style="fill: rgb(245, 185, 216); white-space: pre;"/>
    <path d="M 34.004 3.188 C 36.98 3.188 39.302 4.07 40.97 5.834 C 42.638 7.598 43.472 10.148 43.472 13.484 L 43.472 28.892 L 36.344 28.892 L 36.344 13.7 C 36.344 12.188 35.948 11.042 35.156 10.262 C 34.364 9.482 33.308 9.092 31.988 9.092 C 30.572 9.092 29.45 9.506 28.622 10.334 C 27.794 11.162 27.38 12.404 27.38 14.06 L 27.38 28.892 L 20.252 28.892 L 20.252 13.7 C 20.252 12.188 19.886 11.042 19.154 10.262 C 18.422 9.482 17.42 9.092 16.148 9.092 C 14.78 9.092 13.688 9.506 12.872 10.334 C 12.056 11.162 11.648 12.404 11.648 14.06 L 11.648 28.892 L 4.52 28.892 L 4.52 3.692 L 11.432 3.692 L 11.432 6.5 C 12.2 5.42 13.19 4.598 14.402 4.034 C 15.614 3.47 17.024 3.188 18.632 3.188 C 20.288 3.188 21.734 3.488 22.97 4.088 C 24.206 4.688 25.208 5.564 25.976 6.716 C 26.84 5.564 27.968 4.688 29.36 4.088 C 30.752 3.488 32.3 3.188 34.004 3.188 Z" style="fill: rgb(237, 69, 156); white-space: pre;"/>
  </g>
  <g transform="matrix(1, 0, 0, 1, -1.556999, 1.812)">
    <path d="M 36.789 98.996 C 34.941 98.996 33.267 98.678 31.767 98.042 C 30.267 97.406 29.037 96.488 28.077 95.288 L 31.929 90.68 C 33.273 92.432 34.713 93.308 36.249 93.308 C 37.305 93.308 38.103 92.996 38.643 92.372 C 39.183 91.748 39.453 90.836 39.453 89.636 L 39.453 75.2 L 30.741 75.2 L 30.741 69.692 L 46.509 69.692 L 46.509 89.204 C 46.509 92.468 45.687 94.916 44.043 96.548 C 42.399 98.18 39.981 98.996 36.789 98.996 Z" style="fill: rgb(245, 185, 216); white-space: pre;"/>
    <path d="M 33.789 95.996 C 31.941 95.996 30.267 95.678 28.767 95.042 C 27.267 94.406 26.037 93.488 25.077 92.288 L 28.929 87.68 C 30.273 89.432 31.713 90.308 33.249 90.308 C 34.305 90.308 35.103 89.996 35.643 89.372 C 36.183 88.748 36.453 87.836 36.453 86.636 L 36.453 72.2 L 27.741 72.2 L 27.741 66.692 L 43.509 66.692 L 43.509 86.204 C 43.509 89.468 42.687 91.916 41.043 93.548 C 39.399 95.18 36.981 95.996 33.789 95.996 Z" style="fill: rgb(237, 69, 156); white-space: pre;"/>
  </g>
  <g transform="matrix(1, 0, 0, 1, 0.443001, 1.812)">
    <path d="M 32.228 130.396 C 29.564 130.396 27.17 129.832 25.046 128.704 C 22.922 127.576 21.254 126.016 20.042 124.024 C 18.83 122.032 18.224 119.788 18.224 117.292 C 18.224 114.796 18.83 112.552 20.042 110.56 C 21.254 108.568 22.922 107.008 25.046 105.88 C 27.17 104.752 29.564 104.188 32.228 104.188 C 34.892 104.188 37.286 104.752 39.41 105.88 C 41.534 107.008 43.202 108.568 44.414 110.56 C 45.626 112.552 46.232 114.796 46.232 117.292 C 46.232 119.788 45.626 122.032 44.414 124.024 C 43.202 126.016 41.534 127.576 39.41 128.704 C 37.286 129.832 34.892 130.396 32.228 130.396 Z M 32.228 124.492 C 33.5 124.492 34.652 124.192 35.684 123.592 C 36.716 122.992 37.532 122.146 38.132 121.054 C 38.732 119.962 39.032 118.708 39.032 117.292 C 39.032 115.876 38.732 114.622 38.132 113.53 C 37.532 112.438 36.716 111.592 35.684 110.992 C 34.652 110.392 33.5 110.092 32.228 110.092 C 30.956 110.092 29.804 110.392 28.772 110.992 C 27.74 111.592 26.924 112.438 26.324 113.53 C 25.724 114.622 25.424 115.876 25.424 117.292 C 25.424 118.708 25.724 119.962 26.324 121.054 C 26.924 122.146 27.74 122.992 28.772 123.592 C 29.804 124.192 30.956 124.492 32.228 124.492 Z" style="fill: rgb(245, 185, 216); white-space: pre;"/>
    <path d="M 29.228 127.396 C 26.564 127.396 24.17 126.832 22.046 125.704 C 19.922 124.576 18.254 123.016 17.042 121.024 C 15.83 119.032 15.224 116.788 15.224 114.292 C 15.224 111.796 15.83 109.552 17.042 107.56 C 18.254 105.568 19.922 104.008 22.046 102.88 C 24.17 101.752 26.564 101.188 29.228 101.188 C 31.892 101.188 34.286 101.752 36.41 102.88 C 38.534 104.008 40.202 105.568 41.414 107.56 C 42.626 109.552 43.232 111.796 43.232 114.292 C 43.232 116.788 42.626 119.032 41.414 121.024 C 40.202 123.016 38.534 124.576 36.41 125.704 C 34.286 126.832 31.892 127.396 29.228 127.396 Z M 29.228 121.492 C 30.5 121.492 31.652 121.192 32.684 120.592 C 33.716 119.992 34.532 119.146 35.132 118.054 C 35.732 116.962 36.032 115.708 36.032 114.292 C 36.032 112.876 35.732 111.622 35.132 110.53 C 34.532 109.438 33.716 108.592 32.684 107.992 C 31.652 107.392 30.5 107.092 29.228 107.092 C 27.956 107.092 26.804 107.392 25.772 107.992 C 24.74 108.592 23.924 109.438 23.324 110.53 C 22.724 111.622 22.424 112.876 22.424 114.292 C 22.424 115.708 22.724 116.962 23.324 118.054 C 23.924 119.146 24.74 119.992 25.772 120.592 C 26.804 121.192 27.956 121.492 29.228 121.492 Z" style="fill: rgb(237, 69, 156); white-space: pre;"/>
  </g>
  <g transform="matrix(1, 0, 0, 1, 0.443001, 1.812)">
    <path d="M 32.228 63.396 C 29.564 63.396 27.17 62.832 25.046 61.704 C 22.922 60.576 21.254 59.016 20.042 57.024 C 18.83 55.032 18.224 52.788 18.224 50.292 C 18.224 47.796 18.83 45.552 20.042 43.56 C 21.254 41.568 22.922 40.008 25.046 38.88 C 27.17 37.752 29.564 37.188 32.228 37.188 C 34.892 37.188 37.286 37.752 39.41 38.88 C 41.534 40.008 43.202 41.568 44.414 43.56 C 45.626 45.552 46.232 47.796 46.232 50.292 C 46.232 52.788 45.626 55.032 44.414 57.024 C 43.202 59.016 41.534 60.576 39.41 61.704 C 37.286 62.832 34.892 63.396 32.228 63.396 Z M 32.228 57.492 C 33.5 57.492 34.652 57.192 35.684 56.592 C 36.716 55.992 37.532 55.146 38.132 54.054 C 38.732 52.962 39.032 51.708 39.032 50.292 C 39.032 48.876 38.732 47.622 38.132 46.53 C 37.532 45.438 36.716 44.592 35.684 43.992 C 34.652 43.392 33.5 43.092 32.228 43.092 C 30.956 43.092 29.804 43.392 28.772 43.992 C 27.74 44.592 26.924 45.438 26.324 46.53 C 25.724 47.622 25.424 48.876 25.424 50.292 C 25.424 51.708 25.724 52.962 26.324 54.054 C 26.924 55.146 27.74 55.992 28.772 56.592 C 29.804 57.192 30.956 57.492 32.228 57.492 Z" style="fill: rgb(245, 185, 216); white-space: pre;"/>
    <path d="M 29.228 60.396 C 26.564 60.396 24.17 59.832 22.046 58.704 C 19.922 57.576 18.254 56.016 17.042 54.024 C 15.83 52.032 15.224 49.788 15.224 47.292 C 15.224 44.796 15.83 42.552 17.042 40.56 C 18.254 38.568 19.922 37.008 22.046 35.88 C 24.17 34.752 26.564 34.188 29.228 34.188 C 31.892 34.188 34.286 34.752 36.41 35.88 C 38.534 37.008 40.202 38.568 41.414 40.56 C 42.626 42.552 43.232 44.796 43.232 47.292 C 43.232 49.788 42.626 52.032 41.414 54.024 C 40.202 56.016 38.534 57.576 36.41 58.704 C 34.286 59.832 31.892 60.396 29.228 60.396 Z M 29.228 54.492 C 30.5 54.492 31.652 54.192 32.684 53.592 C 33.716 52.992 34.532 52.146 35.132 51.054 C 35.732 49.962 36.032 48.708 36.032 47.292 C 36.032 45.876 35.732 44.622 35.132 43.53 C 34.532 42.438 33.716 41.592 32.684 40.992 C 31.652 40.392 30.5 40.092 29.228 40.092 C 27.956 40.092 26.804 40.392 25.772 40.992 C 24.74 41.592 23.924 42.438 23.324 43.53 C 22.724 44.622 22.424 45.876 22.424 47.292 C 22.424 48.708 22.724 49.962 23.324 51.054 C 23.924 52.146 24.74 52.992 25.772 53.592 C 26.804 54.192 27.956 54.492 29.228 54.492 Z" style="fill: rgb(237, 69, 156); white-space: pre;"/>
  </g>
</svg>