<?xml version="1.0" encoding="utf-8"?>
<svg viewBox="0 0 100 100" xmlns="http://www.w3.org/2000/svg">
  <rect width="100" height="100" style="stroke-width: 0px; fill: rgb(237, 69, 156);"/>
  <path d="M 44.632 14.263 Q 49.882 14.263 52.822 17.413 Q 55.762 20.563 55.762 26.485 L 55.762 44.335 L 45.85 44.335 L 45.85 26.779 Q 45.85 24.595 44.716 23.44 Q 43.582 22.285 41.608 22.285 Q 39.592 22.285 38.395 23.524 Q 37.198 24.763 37.198 27.115 L 37.198 44.335 L 27.286 44.335 L 27.286 26.779 Q 27.286 24.595 26.257 23.44 Q 25.228 22.285 23.38 22.285 Q 21.49 22.285 20.398 23.524 Q 19.306 24.763 19.306 27.115 L 19.306 44.335 L 9.394 44.335 L 9.394 14.935 L 18.97 14.935 L 18.97 17.875 Q 21.7 14.263 27.076 14.263 Q 32.704 14.263 35.434 18.211 Q 36.988 16.237 39.361 15.25 Q 41.734 14.263 44.632 14.263 Z" style="fill: rgb(255, 255, 255); white-space: pre;"/>
  <path d="M 84.708 83.488 Q 82.314 83.488 80.739 81.955 Q 79.164 80.422 79.164 78.028 Q 79.164 75.634 80.739 74.143 Q 82.314 72.652 84.708 72.652 Q 87.102 72.652 88.677 74.143 Q 90.252 75.634 90.252 78.028 Q 90.252 80.422 88.677 81.955 Q 87.102 83.488 84.708 83.488 Z" style="fill: rgb(255, 255, 255); white-space: pre;"/>
  <path d="M 22.555 87.94 Q 19.111 87.94 16.318 86.827 Q 13.525 85.714 11.719 83.572 L 17.053 77.272 Q 18.229 78.742 19.363 79.456 Q 20.497 80.17 21.715 80.17 Q 23.269 80.17 24.088 79.246 Q 24.907 78.322 24.907 76.516 L 24.907 61.144 L 14.911 61.144 L 14.911 53.668 L 34.693 53.668 L 34.693 75.928 Q 34.693 81.934 31.606 84.937 Q 28.519 87.94 22.555 87.94 Z" style="fill: rgb(255, 255, 255); white-space: pre;"/>
  <path d="M 56.91 83.74 Q 52.164 83.74 48.384 81.766 Q 44.604 79.792 42.462 76.285 Q 40.32 72.778 40.32 68.368 Q 40.32 63.958 42.462 60.451 Q 44.604 56.944 48.384 54.97 Q 52.164 52.996 56.91 52.996 Q 61.656 52.996 65.436 54.97 Q 69.216 56.944 71.358 60.451 Q 73.5 63.958 73.5 68.368 Q 73.5 72.778 71.358 76.285 Q 69.216 79.792 65.436 81.766 Q 61.656 83.74 56.91 83.74 Z M 56.91 75.718 Q 58.758 75.718 60.249 74.815 Q 61.74 73.912 62.622 72.253 Q 63.504 70.594 63.504 68.368 Q 63.504 66.142 62.622 64.483 Q 61.74 62.824 60.249 61.921 Q 58.758 61.018 56.91 61.018 Q 55.062 61.018 53.571 61.921 Q 52.08 62.824 51.198 64.483 Q 50.316 66.142 50.316 68.368 Q 50.316 70.594 51.198 72.253 Q 52.08 73.912 53.571 74.815 Q 55.062 75.718 56.91 75.718 Z" style="fill: rgb(255, 255, 255); white-space: pre;"/>
  <path d="M 74.881 45.007 Q 70.135 45.007 66.355 43.033 Q 62.575 41.059 60.433 37.552 Q 58.291 34.045 58.291 29.635 Q 58.291 25.225 60.433 21.718 Q 62.575 18.211 66.355 16.237 Q 70.135 14.263 74.881 14.263 Q 79.627 14.263 83.407 16.237 Q 87.187 18.211 89.329 21.718 Q 91.471 25.225 91.471 29.635 Q 91.471 34.045 89.329 37.552 Q 87.187 41.059 83.407 43.033 Q 79.627 45.007 74.881 45.007 Z M 74.881 36.985 Q 76.729 36.985 78.22 36.082 Q 79.711 35.179 80.593 33.52 Q 81.475 31.861 81.475 29.635 Q 81.475 27.409 80.593 25.75 Q 79.711 24.091 78.22 23.188 Q 76.729 22.285 74.881 22.285 Q 73.033 22.285 71.542 23.188 Q 70.051 24.091 69.169 25.75 Q 68.287 27.409 68.287 29.635 Q 68.287 31.861 69.169 33.52 Q 70.051 35.179 71.542 36.082 Q 73.033 36.985 74.881 36.985 Z" style="fill: rgb(255, 255, 255); white-space: pre;"/>
</svg>