<?xml version="1.0" encoding="utf-8"?>
<svg viewBox="0 0 200 80" xmlns="http://www.w3.org/2000/svg">
  <rect width="200" height="80" style="fill: rgb(255, 0, 255); stroke-width: 0px;"/>
  <path d="M 53.672 22.301 Q 59.624 22.301 62.96 25.829 Q 66.296 29.357 66.296 36.029 L 66.296 56.573 L 56.792 56.573 L 56.792 36.317 Q 56.792 33.293 55.208 31.733 Q 53.624 30.173 50.984 30.173 Q 48.152 30.173 46.496 31.829 Q 44.84 33.485 44.84 36.797 L 44.84 56.573 L 35.336 56.573 L 35.336 36.317 Q 35.336 33.293 33.872 31.733 Q 32.408 30.173 29.864 30.173 Q 27.128 30.173 25.496 31.829 Q 23.864 33.485 23.864 36.797 L 23.864 56.573 L 14.36 56.573 L 14.36 22.973 L 23.576 22.973 L 23.576 26.717 Q 25.112 24.557 27.536 23.429 Q 29.96 22.301 33.176 22.301 Q 36.488 22.301 38.96 23.501 Q 41.432 24.701 42.968 27.005 Q 44.696 24.701 47.48 23.501 Q 50.264 22.301 53.672 22.301 Z" style="fill: rgb(255, 255, 255); white-space: pre;"/>
  <path d="M 89.71 57.245 Q 84.382 57.245 80.134 54.989 Q 75.886 52.733 73.462 48.749 Q 71.038 44.765 71.038 39.773 Q 71.038 34.781 73.462 30.797 Q 75.886 26.813 80.134 24.557 Q 84.382 22.301 89.71 22.301 Q 95.038 22.301 99.286 24.557 Q 103.534 26.813 105.958 30.797 Q 108.382 34.781 108.382 39.773 Q 108.382 44.765 105.958 48.749 Q 103.534 52.733 99.286 54.989 Q 95.038 57.245 89.71 57.245 Z M 89.71 49.373 Q 92.254 49.373 94.318 48.173 Q 96.382 46.973 97.582 44.789 Q 98.782 42.605 98.782 39.773 Q 98.782 36.941 97.582 34.757 Q 96.382 32.573 94.318 31.373 Q 92.254 30.173 89.71 30.173 Q 87.166 30.173 85.102 31.373 Q 83.038 32.573 81.838 34.757 Q 80.638 36.941 80.638 39.773 Q 80.638 42.605 81.838 44.789 Q 83.038 46.973 85.102 48.173 Q 87.166 49.373 89.71 49.373 Z" style="fill: rgb(255, 255, 255); white-space: pre;"/>
  <path d="M 119.234 62.045 Q 115.538 62.045 112.538 60.773 Q 109.538 59.501 107.618 57.101 L 112.754 50.957 Q 115.442 54.461 118.514 54.461 Q 120.626 54.461 121.706 53.213 Q 122.786 51.965 122.786 49.565 L 122.786 30.317 L 111.17 30.317 L 111.17 22.973 L 132.194 22.973 L 132.194 48.989 Q 132.194 55.517 128.906 58.781 Q 125.618 62.045 119.234 62.045 Z" style="fill: rgb(255, 255, 255); white-space: pre;"/>
  <path d="M 155.57 57.245 Q 150.242 57.245 145.994 54.989 Q 141.746 52.733 139.322 48.749 Q 136.898 44.765 136.898 39.773 Q 136.898 34.781 139.322 30.797 Q 141.746 26.813 145.994 24.557 Q 150.242 22.301 155.57 22.301 Q 160.898 22.301 165.146 24.557 Q 169.394 26.813 171.818 30.797 Q 174.242 34.781 174.242 39.773 Q 174.242 44.765 171.818 48.749 Q 169.394 52.733 165.146 54.989 Q 160.898 57.245 155.57 57.245 Z M 155.57 49.373 Q 158.114 49.373 160.178 48.173 Q 162.242 46.973 163.442 44.789 Q 164.642 42.605 164.642 39.773 Q 164.642 36.941 163.442 34.757 Q 162.242 32.573 160.178 31.373 Q 158.114 30.173 155.57 30.173 Q 153.026 30.173 150.962 31.373 Q 148.898 32.573 147.698 34.757 Q 146.498 36.941 146.498 39.773 Q 146.498 42.605 147.698 44.789 Q 148.898 46.973 150.962 48.173 Q 153.026 49.373 155.57 49.373 Z" style="fill: rgb(255, 255, 255); white-space: pre;"/>
  <path d="M 181.674 57.005 Q 179.37 57.005 177.786 55.469 Q 176.202 53.933 176.202 51.581 Q 176.202 49.181 177.762 47.693 Q 179.322 46.205 181.674 46.205 Q 184.074 46.205 185.61 47.693 Q 187.146 49.181 187.146 51.581 Q 187.146 53.933 185.586 55.469 Q 184.026 57.005 181.674 57.005 Z" style="fill: rgb(255, 255, 255); white-space: pre;"/>
</svg>