<?xml version="1.0" encoding="utf-8"?>
<svg viewBox="0 0 100 100" xmlns="http://www.w3.org/2000/svg">
  <rect width="100" height="100" style="stroke-width: 0px; fill: rgb(245, 185, 216);"/>
  <g transform="matrix(1, 0, 0, 1, 7, 5.000088)">
    <path d="M 37.004 17.188 Q 41.468 17.188 43.97 19.834 Q 46.472 22.48 46.472 27.484 L 46.472 42.892 L 39.344 42.892 L 39.344 27.7 Q 39.344 25.432 38.156 24.262 Q 36.968 23.092 34.988 23.092 Q 32.864 23.092 31.622 24.334 Q 30.38 25.576 30.38 28.06 L 30.38 42.892 L 23.252 42.892 L 23.252 27.7 Q 23.252 25.432 22.154 24.262 Q 21.056 23.092 19.148 23.092 Q 17.096 23.092 15.872 24.334 Q 14.648 25.576 14.648 28.06 L 14.648 42.892 L 7.52 42.892 L 7.52 17.692 L 14.432 17.692 L 14.432 20.5 Q 15.584 18.88 17.402 18.034 Q 19.22 17.188 21.632 17.188 Q 24.116 17.188 25.97 18.088 Q 27.824 18.988 28.976 20.716 Q 30.272 18.988 32.36 18.088 Q 34.448 17.188 37.004 17.188 Z" style="white-space: pre; fill: rgb(237, 69, 156);"/>
    <path d="M 36.789 77.996 Q 34.017 77.996 31.767 77.042 Q 29.517 76.088 28.077 74.288 L 31.929 69.68 Q 33.945 72.308 36.249 72.308 Q 37.833 72.308 38.643 71.372 Q 39.453 70.436 39.453 68.636 L 39.453 54.2 L 30.741 54.2 L 30.741 48.692 L 46.509 48.692 L 46.509 68.204 Q 46.509 73.1 44.043 75.548 Q 41.577 77.996 36.789 77.996 Z" style="white-space: pre; fill: rgb(237, 69, 156);"/>
    <path d="M 64.228 74.396 Q 60.232 74.396 57.046 72.704 Q 53.86 71.012 52.042 68.024 Q 50.224 65.036 50.224 61.292 Q 50.224 57.548 52.042 54.56 Q 53.86 51.572 57.046 49.88 Q 60.232 48.188 64.228 48.188 Q 68.224 48.188 71.41 49.88 Q 74.596 51.572 76.414 54.56 Q 78.232 57.548 78.232 61.292 Q 78.232 65.036 76.414 68.024 Q 74.596 71.012 71.41 72.704 Q 68.224 74.396 64.228 74.396 Z M 64.228 68.492 Q 66.136 68.492 67.684 67.592 Q 69.232 66.692 70.132 65.054 Q 71.032 63.416 71.032 61.292 Q 71.032 59.168 70.132 57.53 Q 69.232 55.892 67.684 54.992 Q 66.136 54.092 64.228 54.092 Q 62.32 54.092 60.772 54.992 Q 59.224 55.892 58.324 57.53 Q 57.424 59.168 57.424 61.292 Q 57.424 63.416 58.324 65.054 Q 59.224 66.692 60.772 67.592 Q 62.32 68.492 64.228 68.492 Z" style="white-space: pre; fill: rgb(237, 69, 156);"/>
    <path d="M 64.228 43.396 Q 60.232 43.396 57.046 41.704 Q 53.86 40.012 52.042 37.024 Q 50.224 34.036 50.224 30.292 Q 50.224 26.548 52.042 23.56 Q 53.86 20.572 57.046 18.88 Q 60.232 17.188 64.228 17.188 Q 68.224 17.188 71.41 18.88 Q 74.596 20.572 76.414 23.56 Q 78.232 26.548 78.232 30.292 Q 78.232 34.036 76.414 37.024 Q 74.596 40.012 71.41 41.704 Q 68.224 43.396 64.228 43.396 Z M 64.228 37.492 Q 66.136 37.492 67.684 36.592 Q 69.232 35.692 70.132 34.054 Q 71.032 32.416 71.032 30.292 Q 71.032 28.168 70.132 26.53 Q 69.232 24.892 67.684 23.992 Q 66.136 23.092 64.228 23.092 Q 62.32 23.092 60.772 23.992 Q 59.224 24.892 58.324 26.53 Q 57.424 28.168 57.424 30.292 Q 57.424 32.416 58.324 34.054 Q 59.224 35.692 60.772 36.592 Q 62.32 37.492 64.228 37.492 Z" style="white-space: pre; fill: rgb(237, 69, 156);"/>
  </g>
  <g transform="matrix(1, 0, 0, 1, 4, 2)">
    <path d="M 37.004 17.188 Q 41.468 17.188 43.97 19.834 Q 46.472 22.48 46.472 27.484 L 46.472 42.892 L 39.344 42.892 L 39.344 27.7 Q 39.344 25.432 38.156 24.262 Q 36.968 23.092 34.988 23.092 Q 32.864 23.092 31.622 24.334 Q 30.38 25.576 30.38 28.06 L 30.38 42.892 L 23.252 42.892 L 23.252 27.7 Q 23.252 25.432 22.154 24.262 Q 21.056 23.092 19.148 23.092 Q 17.096 23.092 15.872 24.334 Q 14.648 25.576 14.648 28.06 L 14.648 42.892 L 7.52 42.892 L 7.52 17.692 L 14.432 17.692 L 14.432 20.5 Q 15.584 18.88 17.402 18.034 Q 19.22 17.188 21.632 17.188 Q 24.116 17.188 25.97 18.088 Q 27.824 18.988 28.976 20.716 Q 30.272 18.988 32.36 18.088 Q 34.448 17.188 37.004 17.188 Z" style="fill: rgb(255, 255, 255); white-space: pre;"/>
    <path d="M 36.789 77.996 Q 34.017 77.996 31.767 77.042 Q 29.517 76.088 28.077 74.288 L 31.929 69.68 Q 33.945 72.308 36.249 72.308 Q 37.833 72.308 38.643 71.372 Q 39.453 70.436 39.453 68.636 L 39.453 54.2 L 30.741 54.2 L 30.741 48.692 L 46.509 48.692 L 46.509 68.204 Q 46.509 73.1 44.043 75.548 Q 41.577 77.996 36.789 77.996 Z" style="fill: rgb(255, 255, 255); white-space: pre;"/>
    <path d="M 64.228 74.396 Q 60.232 74.396 57.046 72.704 Q 53.86 71.012 52.042 68.024 Q 50.224 65.036 50.224 61.292 Q 50.224 57.548 52.042 54.56 Q 53.86 51.572 57.046 49.88 Q 60.232 48.188 64.228 48.188 Q 68.224 48.188 71.41 49.88 Q 74.596 51.572 76.414 54.56 Q 78.232 57.548 78.232 61.292 Q 78.232 65.036 76.414 68.024 Q 74.596 71.012 71.41 72.704 Q 68.224 74.396 64.228 74.396 Z M 64.228 68.492 Q 66.136 68.492 67.684 67.592 Q 69.232 66.692 70.132 65.054 Q 71.032 63.416 71.032 61.292 Q 71.032 59.168 70.132 57.53 Q 69.232 55.892 67.684 54.992 Q 66.136 54.092 64.228 54.092 Q 62.32 54.092 60.772 54.992 Q 59.224 55.892 58.324 57.53 Q 57.424 59.168 57.424 61.292 Q 57.424 63.416 58.324 65.054 Q 59.224 66.692 60.772 67.592 Q 62.32 68.492 64.228 68.492 Z" style="fill: rgb(255, 255, 255); white-space: pre;"/>
    <path d="M 64.228 43.396 Q 60.232 43.396 57.046 41.704 Q 53.86 40.012 52.042 37.024 Q 50.224 34.036 50.224 30.292 Q 50.224 26.548 52.042 23.56 Q 53.86 20.572 57.046 18.88 Q 60.232 17.188 64.228 17.188 Q 68.224 17.188 71.41 18.88 Q 74.596 20.572 76.414 23.56 Q 78.232 26.548 78.232 30.292 Q 78.232 34.036 76.414 37.024 Q 74.596 40.012 71.41 41.704 Q 68.224 43.396 64.228 43.396 Z M 64.228 37.492 Q 66.136 37.492 67.684 36.592 Q 69.232 35.692 70.132 34.054 Q 71.032 32.416 71.032 30.292 Q 71.032 28.168 70.132 26.53 Q 69.232 24.892 67.684 23.992 Q 66.136 23.092 64.228 23.092 Q 62.32 23.092 60.772 23.992 Q 59.224 24.892 58.324 26.53 Q 57.424 28.168 57.424 30.292 Q 57.424 32.416 58.324 34.054 Q 59.224 35.692 60.772 36.592 Q 62.32 37.492 64.228 37.492 Z" style="fill: rgb(255, 255, 255); white-space: pre;"/>
  </g>
</svg>