<?xml version="1.0" encoding="utf-8"?>
<svg viewBox="0 0 200 80" xmlns="http://www.w3.org/2000/svg">
  <rect width="200" height="80" style="stroke-width: 0px; fill: rgb(237, 69, 156);"/>
  <path d="M 60.991 24.301 C 64.385 24.301 67.033 25.306 68.936 27.319 C 70.839 29.331 71.79 32.24 71.79 36.046 L 71.79 53.62 L 63.659 53.62 L 63.659 36.291 C 63.659 34.566 63.209 33.26 62.304 32.37 C 61.401 31.481 60.196 31.036 58.691 31.036 C 57.076 31.036 55.797 31.507 54.85 32.452 C 53.907 33.396 53.434 34.813 53.434 36.702 L 53.434 53.62 L 45.304 53.62 L 45.304 36.291 C 45.304 34.566 44.887 33.26 44.052 32.37 C 43.218 31.481 42.074 31.036 40.624 31.036 C 39.063 31.036 37.816 31.507 36.887 32.452 C 35.956 33.396 35.491 34.813 35.491 36.702 L 35.491 53.62 L 27.36 53.62 L 27.36 24.875 L 35.243 24.875 L 35.243 28.079 C 36.119 26.846 37.249 25.91 38.631 25.267 C 40.014 24.624 41.623 24.301 43.458 24.301 C 45.345 24.301 46.995 24.644 48.404 25.328 C 49.816 26.013 50.958 27.011 51.833 28.326 C 52.819 27.011 54.105 26.013 55.694 25.328 C 57.281 24.644 59.047 24.301 60.991 24.301 Z" style="fill: rgb(255, 255, 255); white-space: pre;"/>
  <path d="M 91.819 54.195 C 88.781 54.195 86.051 53.552 83.628 52.266 C 81.205 50.977 79.302 49.199 77.921 46.928 C 76.539 44.654 75.847 42.096 75.847 39.247 C 75.847 36.4 76.539 33.84 77.921 31.569 C 79.302 29.297 81.205 27.517 83.628 26.231 C 86.051 24.944 88.781 24.301 91.819 24.301 C 94.859 24.301 97.588 24.944 100.012 26.231 C 102.435 27.517 104.338 29.297 105.719 31.569 C 107.103 33.84 107.793 36.4 107.793 39.247 C 107.793 42.096 107.103 44.654 105.719 46.928 C 104.338 49.199 102.435 50.977 100.012 52.266 C 97.588 53.552 94.859 54.195 91.819 54.195 Z M 91.819 47.461 C 93.27 47.461 94.585 47.119 95.762 46.434 C 96.94 45.749 97.87 44.786 98.554 43.539 C 99.239 42.293 99.582 40.864 99.582 39.247 C 99.582 37.633 99.239 36.203 98.554 34.958 C 97.87 33.711 96.94 32.747 95.762 32.062 C 94.585 31.378 93.27 31.036 91.819 31.036 C 90.369 31.036 89.054 31.378 87.878 32.062 C 86.701 32.747 85.77 33.711 85.086 34.958 C 84.401 36.203 84.058 37.633 84.058 39.247 C 84.058 40.864 84.401 42.293 85.086 43.539 C 85.77 44.786 86.701 45.749 87.878 46.434 C 89.054 47.119 90.369 47.461 91.819 47.461 Z" style="fill: rgb(255, 255, 255); white-space: pre;"/>
  <path d="M 117.077 58.301 C 114.969 58.301 113.059 57.939 111.349 57.213 C 109.638 56.487 108.234 55.44 107.141 54.071 L 111.533 48.816 C 113.067 50.814 114.71 51.813 116.46 51.813 C 117.666 51.813 118.576 51.457 119.191 50.745 C 119.808 50.033 120.116 48.994 120.116 47.625 L 120.116 31.158 L 110.178 31.158 L 110.178 24.875 L 128.164 24.875 L 128.164 47.132 C 128.164 50.855 127.227 53.648 125.352 55.508 C 123.476 57.369 120.718 58.301 117.077 58.301 Z" style="fill: rgb(255, 255, 255); white-space: pre;"/>
  <path d="M 148.162 54.195 C 145.122 54.195 142.393 53.552 139.97 52.266 C 137.547 50.977 135.644 49.199 134.262 46.928 C 132.88 44.654 132.188 42.096 132.188 39.247 C 132.188 36.4 132.88 33.84 134.262 31.569 C 135.644 29.297 137.547 27.517 139.97 26.231 C 142.393 24.944 145.122 24.301 148.162 24.301 C 151.201 24.301 153.93 24.944 156.353 26.231 C 158.776 27.517 160.68 29.297 162.061 31.569 C 163.445 33.84 164.135 36.4 164.135 39.247 C 164.135 42.096 163.445 44.654 162.061 46.928 C 160.68 49.199 158.776 50.977 156.353 52.266 C 153.93 53.552 151.201 54.195 148.162 54.195 Z M 148.162 47.461 C 149.612 47.461 150.927 47.119 152.103 46.434 C 153.28 45.749 154.211 44.786 154.896 43.539 C 155.58 42.293 155.923 40.864 155.923 39.247 C 155.923 37.633 155.58 36.203 154.896 34.958 C 154.211 33.711 153.28 32.747 152.103 32.062 C 150.927 31.378 149.612 31.036 148.162 31.036 C 146.711 31.036 145.396 31.378 144.22 32.062 C 143.044 32.747 142.112 33.711 141.427 34.958 C 140.743 36.203 140.4 37.633 140.4 39.247 C 140.4 40.864 140.743 42.293 141.427 43.539 C 142.112 44.786 143.044 45.749 144.22 46.434 C 145.396 47.119 146.711 47.461 148.162 47.461 Z" style="fill: rgb(255, 255, 255); white-space: pre;"/>
  <path d="M 170.493 53.989 C 169.18 53.989 168.07 53.552 167.167 52.674 C 166.264 51.799 165.812 50.691 165.812 49.349 C 165.812 47.982 166.257 46.871 167.147 46.023 C 168.036 45.174 169.152 44.752 170.493 44.752 C 171.862 44.752 172.984 45.174 173.86 46.023 C 174.735 46.871 175.175 47.982 175.175 49.349 C 175.175 50.691 174.73 51.799 173.84 52.674 C 172.95 53.552 171.835 53.989 170.493 53.989 Z" style="fill: rgb(255, 255, 255); white-space: pre;"/>
</svg>