<?xml version="1.0" encoding="utf-8"?>
<svg viewBox="0 0 50 112" xmlns="http://www.w3.org/2000/svg">
  <rect width="50" height="112" style="fill: rgb(245, 185, 216);"/>
  <path d="M 33.36 11.249 C 35.589 11.249 37.33 11.911 38.582 13.233 C 39.832 14.557 40.458 16.468 40.458 18.97 L 40.458 30.524 L 35.113 30.524 L 35.113 19.132 C 35.113 18 34.816 17.138 34.224 16.555 C 33.629 15.968 32.835 15.677 31.846 15.677 C 30.784 15.677 29.944 15.987 29.323 16.608 C 28.702 17.23 28.391 18.16 28.391 19.403 L 28.391 30.524 L 23.046 30.524 L 23.046 19.132 C 23.046 18 22.772 17.138 22.224 16.555 C 21.675 15.968 20.923 15.677 19.968 15.677 C 18.944 15.677 18.126 15.987 17.512 16.608 C 16.899 17.23 16.594 18.16 16.594 19.403 L 16.594 30.524 L 11.249 30.524 L 11.249 11.629 L 16.432 11.629 L 16.432 13.732 C 17.008 12.923 17.751 12.306 18.658 11.885 C 19.568 11.46 20.625 11.249 21.831 11.249 C 23.072 11.249 24.158 11.474 25.085 11.924 C 26.011 12.375 26.763 13.031 27.339 13.895 C 27.986 13.031 28.832 12.375 29.876 11.924 C 30.92 11.474 32.08 11.249 33.36 11.249 Z" style="white-space: pre; fill: rgb(237, 69, 156);"/>
  <path d="M 31.108 9 C 33.341 9 35.082 9.662 36.333 10.984 C 37.584 12.306 38.208 14.22 38.208 16.72 L 38.208 28.273 L 32.864 28.273 L 32.864 16.882 C 32.864 15.748 32.567 14.89 31.971 14.304 C 31.378 13.72 30.587 13.427 29.598 13.427 C 28.536 13.427 27.696 13.738 27.072 14.359 C 26.452 14.978 26.142 15.91 26.142 17.152 L 26.142 28.273 L 20.797 28.273 L 20.797 16.882 C 20.797 15.748 20.523 14.89 19.973 14.304 C 19.424 13.72 18.672 13.427 17.72 13.427 C 16.694 13.427 15.873 13.738 15.264 14.359 C 14.651 14.978 14.345 15.91 14.345 17.152 L 14.345 28.273 L 9 28.273 L 9 9.376 L 14.183 9.376 L 14.183 11.484 C 14.759 10.673 15.503 10.058 16.41 9.633 C 17.319 9.212 18.376 9 19.583 9 C 20.824 9 21.908 9.225 22.834 9.676 C 23.761 10.126 24.512 10.782 25.088 11.646 C 25.737 10.782 26.583 10.126 27.627 9.676 C 28.671 9.225 29.831 9 31.108 9 Z" style="white-space: pre; fill: rgb(255, 255, 255);"/>
  <path d="M 31.418 80.843 C 30.033 80.843 28.778 80.604 27.655 80.128 C 26.529 79.648 25.608 78.96 24.888 78.063 L 27.775 74.608 C 28.784 75.92 29.864 76.576 31.016 76.576 C 31.806 76.576 32.405 76.344 32.809 75.873 C 33.214 75.408 33.416 74.722 33.416 73.824 L 33.416 62.999 L 26.886 62.999 L 26.886 58.868 L 38.708 58.868 L 38.708 73.499 C 38.708 75.948 38.091 77.783 36.857 79.007 C 35.625 80.23 33.814 80.843 31.418 80.843 Z" style="white-space: pre; fill: rgb(237, 69, 156);"/>
  <path d="M 29.169 78.592 C 27.784 78.592 26.529 78.353 25.403 77.877 C 24.28 77.4 23.356 76.712 22.637 75.811 L 25.526 72.356 C 26.535 73.67 27.612 74.328 28.764 74.328 C 29.557 74.328 30.155 74.095 30.56 73.625 C 30.966 73.157 31.167 72.473 31.167 71.574 L 31.167 60.75 L 24.633 60.75 L 24.633 56.62 L 36.458 56.62 L 36.458 71.249 C 36.458 73.696 35.843 75.535 34.609 76.757 C 33.377 77.981 31.563 78.592 29.169 78.592 Z" style="white-space: pre; fill: rgb(255, 255, 255);"/>
  <path d="M 30.498 104.386 C 28.502 104.386 26.706 103.965 25.113 103.12 C 23.52 102.272 22.271 101.104 21.36 99.609 C 20.451 98.114 19.999 96.432 19.999 94.56 C 19.999 92.689 20.451 91.008 21.36 89.514 C 22.271 88.019 23.52 86.848 25.113 86.004 C 26.706 85.158 28.502 84.736 30.498 84.736 C 32.496 84.736 34.292 85.158 35.886 86.004 C 37.476 86.848 38.728 88.019 39.637 89.514 C 40.544 91.008 41 92.689 41 94.56 C 41 96.432 40.544 98.114 39.637 99.609 C 38.728 101.104 37.476 102.272 35.886 103.12 C 34.292 103.965 32.496 104.386 30.498 104.386 Z M 30.498 99.96 C 31.453 99.96 32.317 99.736 33.089 99.286 C 33.865 98.835 34.478 98.2 34.928 97.382 C 35.376 96.563 35.6 95.623 35.6 94.56 C 35.6 93.5 35.376 92.56 34.928 91.741 C 34.478 90.922 33.865 90.288 33.089 89.839 C 32.317 89.388 31.453 89.163 30.498 89.163 C 29.546 89.163 28.682 89.388 27.906 89.839 C 27.134 90.288 26.521 90.922 26.072 91.741 C 25.622 92.56 25.397 93.5 25.397 94.56 C 25.397 95.623 25.622 96.563 26.072 97.382 C 26.521 98.2 27.134 98.835 27.906 99.286 C 28.682 99.736 29.546 99.96 30.498 99.96 Z" style="white-space: pre; fill: rgb(237, 69, 156);"/>
  <path d="M 28.249 102.137 C 26.253 102.137 24.457 101.714 22.864 100.868 C 21.272 100.024 20.021 98.853 19.112 97.36 C 18.203 95.866 17.748 94.183 17.748 92.312 C 17.748 90.44 18.203 88.758 19.112 87.264 C 20.021 85.771 21.272 84.6 22.864 83.755 C 24.457 82.909 26.253 82.486 28.249 82.486 C 30.247 82.486 32.043 82.909 33.633 83.755 C 35.228 84.6 36.479 85.771 37.388 87.264 C 38.296 88.758 38.751 90.44 38.751 92.312 C 38.751 94.183 38.296 95.866 37.388 97.36 C 36.479 98.853 35.228 100.024 33.633 100.868 C 32.043 101.714 30.247 102.137 28.249 102.137 Z M 28.249 97.712 C 29.203 97.712 30.067 97.488 30.84 97.037 C 31.616 96.587 32.225 95.952 32.676 95.133 C 33.126 94.314 33.351 93.374 33.351 92.312 C 33.351 91.249 33.126 90.309 32.676 89.49 C 32.225 88.672 31.616 88.037 30.84 87.586 C 30.067 87.136 29.203 86.912 28.249 86.912 C 27.296 86.912 26.432 87.136 25.658 87.586 C 24.884 88.037 24.272 88.672 23.824 89.49 C 23.374 90.309 23.149 91.249 23.149 92.312 C 23.149 93.374 23.374 94.314 23.824 95.133 C 24.272 95.952 24.884 96.587 25.658 97.037 C 26.432 97.488 27.296 97.712 28.249 97.712 Z" style="white-space: pre; fill: rgb(255, 255, 255);"/>
  <path d="M 30.498 54.146 C 28.502 54.146 26.706 53.725 25.113 52.88 C 23.52 52.032 22.271 50.864 21.36 49.368 C 20.451 47.874 19.999 46.192 19.999 44.32 C 19.999 42.448 20.451 40.768 21.36 39.273 C 22.271 37.779 23.52 36.608 25.113 35.763 C 26.706 34.917 28.502 34.496 30.498 34.496 C 32.496 34.496 34.292 34.917 35.886 35.763 C 37.476 36.608 38.728 37.779 39.637 39.273 C 40.544 40.768 41 42.448 41 44.32 C 41 46.192 40.544 47.874 39.637 49.368 C 38.728 50.864 37.476 52.032 35.886 52.88 C 34.292 53.725 32.496 54.146 30.498 54.146 Z M 30.498 49.72 C 31.453 49.72 32.317 49.496 33.089 49.045 C 33.865 48.595 34.478 47.96 34.928 47.141 C 35.376 46.323 35.6 45.383 35.6 44.32 C 35.6 43.259 35.376 42.32 34.928 41.5 C 34.478 40.682 33.865 40.048 33.089 39.599 C 32.317 39.148 31.453 38.923 30.498 38.923 C 29.546 38.923 28.682 39.148 27.906 39.599 C 27.134 40.048 26.521 40.682 26.072 41.5 C 25.622 42.32 25.397 43.259 25.397 44.32 C 25.397 45.383 25.622 46.323 26.072 47.141 C 26.521 47.96 27.134 48.595 27.906 49.045 C 28.682 49.496 29.546 49.72 30.498 49.72 Z" style="white-space: pre; fill: rgb(237, 69, 156);"/>
  <path d="M 28.249 51.897 C 26.253 51.897 24.457 51.474 22.864 50.628 C 21.272 49.784 20.021 48.612 19.112 47.12 C 18.203 45.625 17.748 43.943 17.748 42.072 C 17.748 40.2 18.203 38.517 19.112 37.024 C 20.021 35.53 21.272 34.36 22.864 33.515 C 24.457 32.669 26.253 32.246 28.249 32.246 C 30.247 32.246 32.043 32.669 33.633 33.515 C 35.228 34.36 36.479 35.53 37.388 37.024 C 38.296 38.517 38.751 40.2 38.751 42.072 C 38.751 43.943 38.296 45.625 37.388 47.12 C 36.479 48.612 35.228 49.784 33.633 50.628 C 32.043 51.474 30.247 51.897 28.249 51.897 Z M 28.249 47.472 C 29.203 47.472 30.067 47.247 30.84 46.797 C 31.616 46.346 32.225 45.712 32.676 44.893 C 33.126 44.074 33.351 43.134 33.351 42.072 C 33.351 41.009 33.126 40.069 32.676 39.25 C 32.225 38.432 31.616 37.797 30.84 37.346 C 30.067 36.896 29.203 36.672 28.249 36.672 C 27.296 36.672 26.432 36.896 25.658 37.346 C 24.884 37.797 24.272 38.432 23.824 39.25 C 23.374 40.069 23.149 41.009 23.149 42.072 C 23.149 43.134 23.374 44.074 23.824 44.893 C 24.272 45.712 24.884 46.346 25.658 46.797 C 26.432 47.247 27.296 47.472 28.249 47.472 Z" style="white-space: pre; fill: rgb(255, 255, 255);"/>
</svg>