<?xml version="1.0" encoding="utf-8"?>
<svg viewBox="0 0 960 480" xmlns="http://www.w3.org/2000/svg">
  <path style="fill: none; stroke-width: 2px; stroke-linecap: round; stroke-linejoin: round; stroke: rgb(51, 51, 51);" d="M 869.811 242.58 C 863.789 231.791 862.685 230.333 857.905 221.148 C 852.286 210.352 849.419 203.246 850.835 193.806 C 853.506 176.006 866.935 166.69 871.146 149.841 C 876.813 127.189 847.195 94.007 826.783 88.44 C 802.806 81.899 780.397 105.828 756.493 97.86 C 745.71 94.267 740.347 80.287 731.236 73.607 C 704.126 53.724 659.041 58.959 639.834 88.64 C 611.583 132.295 630.239 160.799 636.025 207.035 C 639.491 234.736 615.206 249.204 608.163 273.849 C 599.972 302.512 622.768 351.984 645.98 369.393 C 658.151 378.518 674.032 379.209 688.341 377.01 C 705.72 374.338 723.346 370.918 738.786 361.91 C 751.771 354.334 757.546 341.152 766.915 330.441 C 778.848 316.801 791.195 305.091 803.465 292.824 C 813.381 282.91 834.456 293.265 845.825 290.017 C 868.676 283.491 881.304 267.488 869.811 242.58 Z"/>
  <path style="fill: none; stroke-width: 2px; stroke-linecap: round; stroke-linejoin: round; stroke: rgb(51, 51, 51);" d="M 731.893 141.914 C 710.854 138.975 719.476 136.304 691.907 129.699 C 683.917 127.786 669.891 119.482 661.664 125.394 C 641.079 140.185 654.209 168.234 656.851 187.208 C 662.207 225.675 658.087 254.147 647.464 291.462 C 644.101 303.284 644.484 322.593 658.617 327.675 C 677.703 334.539 709.069 303.883 725.036 296.229 C 741.381 288.392 763.432 292.845 780.547 285.389 C 829.462 264.081 808.383 231.472 802.929 194.973 C 801.384 184.635 798.851 176.641 794.307 166.748 C 786.501 149.764 775.784 138.798 764.402 139.548 L 731.893 141.914 Z"/>
  <path style="fill: none; stroke-width: 2px; stroke-linecap: round; stroke-linejoin: round; stroke: rgb(51, 51, 51);" d="M 717.062 215.102 C 724.185 236.006 733.363 239.657 752.951 236.566 C 765.07 234.653 769.661 224.537 776.069 215.987 C 787.2 201.137 760.787 185.332 753.442 178.907 C 749.365 175.339 743.81 168.304 737.384 169.016 C 723.577 170.55 720.309 179.464 717.795 191.419 C 715.043 200.593 715.111 208.626 717.062 215.102 Z"/>
  <path style="fill: none; stroke-width: 2px; stroke-linecap: round; stroke-linejoin: round; stroke: rgb(51, 51, 51);" d="M 548.698 57.303 C 550.042 65.121 552.154 73.298 550.569 81.223 C 538.312 142.496 463.632 116.396 426.091 148.571 C 409.184 163.064 399.857 192.083 391.415 211.778 C 383.924 229.254 370.945 246.82 359.744 262.022 C 311.041 328.122 192.923 327.276 156.091 249.527 C 147.484 231.357 141.413 209.408 138.92 189.462 C 136.87 173.069 142.837 159.169 147.272 143.961 C 152.09 127.438 160.458 111.669 173.53 100.465 C 194.106 82.829 209.217 69.121 237.539 65.789 C 279.023 60.909 322.719 81.387 362.484 63.317 C 408.342 42.477 444.643 21.117 500.924 20.355 C 512.433 20.2 533.477 25.221 542.872 38.198 L 548.698 57.303 Z"/>
  <path style="fill: none; stroke-width: 2px; stroke-linecap: round; stroke-linejoin: round; stroke: rgb(51, 51, 51);" d="M 525.98 416.162 C 536.508 408.817 549.326 400.762 554.577 383.958 C 561.242 362.626 551.174 340.214 549.832 318.747 C 547.899 287.794 585.859 229.113 529.722 222.868 C 500.152 219.58 479.321 250.635 459.967 266.765 C 429.33 292.299 331.978 325.074 370.3 382.554 C 393.392 417.191 435.691 412.861 471.125 418.768 C 500.792 421.692 506.217 425.714 525.98 416.162 Z"/>
  <path style="fill: none; stroke-width: 2px; stroke-linecap: round; stroke-linejoin: round; stroke: rgb(51, 51, 51);" d="M 463.193 55.202 C 453.125 63.472 449.021 67.341 439.32 73.807 C 433.415 77.743 426.203 79.385 420.546 83.829 C 406.37 94.967 406.631 113.834 427.895 114.898 C 441.903 115.599 457.56 106.129 471.125 102.938 C 483.353 100.061 500.544 101.311 511.615 94.853 C 524.671 87.237 522.284 54.25 507.538 48.352 C 489.322 41.065 481.814 45.686 471.596 50.164 L 463.193 55.202 Z"/>
  <path style="fill: none; stroke-width: 2px; stroke-linecap: round; stroke-linejoin: round; stroke: rgb(51, 51, 51);" d="M 317.856 254.853 C 342.105 227.378 372.831 180.735 365.222 137.415 C 363.044 125.009 325.584 119.422 315.378 118.572 C 265.704 114.433 213.752 121.263 180.144 164.474 C 146.004 208.367 219.332 261.917 255.579 270.976 C 265.968 273.573 280.013 272.553 289.708 270.131 C 301.285 267.07 317.856 254.853 317.856 254.853 Z"/>
  <path style="fill: none; stroke-width: 2px; stroke-linecap: round; stroke-linejoin: round; stroke: rgb(51, 51, 51);" d="M 270.144 243.448 C 289.677 238.181 306.444 226.577 318.117 205.565 C 320.777 200.778 320.075 195.176 320.656 189.931 C 325.692 144.561 256.789 158.938 232.928 176.836 C 217.087 188.717 214.298 212.51 233.051 227.994 C 248.569 243.14 257.52 241.586 270.144 243.448 Z"/>
  <path style="fill: none; stroke-width: 2px; stroke-linecap: round; stroke-linejoin: round; stroke: rgb(51, 51, 51);" d="M 239.693 398.921 C 236.725 368.466 230.137 357.337 203.329 351.151 C 191.794 348.491 180.129 353.322 168.118 350.551 C 153.184 347.104 144.254 330.69 130.033 326.9 C 103.445 319.808 80.372 350.253 74.509 372.533 C 57.245 438.126 128.082 448.329 177.205 444.826 C 195.607 443.511 226.585 439.543 233.664 418.3 C 238.121 409.943 239.693 398.921 239.693 398.921 Z"/>
  <path style="fill: none; stroke-width: 2px; stroke-linecap: round; stroke-linejoin: round; stroke: rgb(51, 51, 51);" d="M 195.469 395.344 C 180.038 381.705 138.088 378.166 115.008 380.516 C 100.502 381.992 93.753 396.88 102.058 405.758 C 116.586 421.285 197.919 430.19 197.919 400.672 L 195.469 395.344 Z"/>
  <path style="fill: none; stroke-width: 2px; stroke-linecap: round; stroke-linejoin: round; stroke: rgb(51, 51, 51);" d="M 468.848 394.792 C 455.003 392.279 425.949 399.274 407.983 382.688 C 397.255 372.784 385.918 351.837 399.097 338.658 C 417.344 320.412 456.106 329.309 477.273 312.6 C 489.072 303.284 509.43 268.417 527.183 271.376 C 530.38 271.909 531.99 279.021 531.659 281.666 C 529.733 297.103 531.792 307.191 535.668 322.688 C 538.897 335.598 546.332 350.041 544.021 363.913 C 539.16 393.081 490.423 397.329 478.101 396.203 L 468.848 394.792 Z"/>
  <path style="fill: none; stroke-width: 2px; stroke-linecap: round; stroke-linejoin: round; stroke: rgb(51, 51, 51);" d="M 518.346 338.712 C 530.306 352.934 519.357 371.267 499.722 375.206 C 490.8 376.994 481.749 366.956 471.391 369.259 C 462.447 371.248 443.643 381.364 436.782 369.927 C 428.055 355.382 477.431 338.557 488.429 335.652 C 491.892 334.736 499.332 332.8 505.392 332.883 C 511.161 332.626 518.346 338.712 518.346 338.712 Z"/>
  <path style="fill: none; stroke-width: 2px; stroke-linecap: round; stroke-linejoin: round; stroke: rgb(51, 51, 51);" d="M 869.625 387.706 C 868.071 370.606 852.959 348.815 844.27 346.643 C 815.643 339.486 775.36 407.521 795.045 432.131 C 803.081 442.177 822.953 448.417 833.733 441.9 C 841.228 437.369 849.466 434.519 859.486 422.605 C 868.266 411.244 871.008 397.434 869.625 387.706 Z"/>
  <path style="fill: none; stroke-width: 2px; stroke-linecap: round; stroke-linejoin: round; stroke: rgb(51, 51, 51);" d="M 86.603 233.159 C 72.271 210.056 62.943 184.326 52.66 160.33 C 49.785 153.621 47.509 138.936 40.034 135.944 C 26.563 130.553 19.987 161.612 19.186 168.816 C 15.538 201.65 18.231 247.619 37.761 275.518 C 49.806 292.725 85.282 303.618 102.772 290.017 C 107.641 286.23 115.679 283.643 116.602 276.253 C 118.526 260.86 104.51 260.942 98.937 248.404 L 86.603 233.159 Z"/>
  <path style="fill: none; stroke-width: 2px; stroke-linecap: round; stroke-linejoin: round; stroke: rgb(51, 51, 51);" d="M 282.55 208.502 C 288.287 205.442 296.241 194.658 287.575 190.324 C 285.847 189.461 282.722 191.018 280.942 191.24 C 272.852 192.253 255.881 197.838 255.881 208.252 C 255.881 211.953 254.81 216.541 259.711 217.521 C 264.645 218.509 268.456 215.821 272.948 214.025 C 273.934 213.63 277.45 212.431 277.25 211.832 L 282.55 208.502 Z"/>
  <path style="fill: none; stroke-width: 2px; stroke-linecap: round; stroke-linejoin: round; stroke: rgb(51, 51, 51);" d="M 55.161 369.297 C 54.835 388.927 54.047 415.652 66.433 432.165 C 75.096 443.715 91.257 445.961 103.538 451.418 C 137.774 466.634 177.844 469.857 215.205 461.849 C 223.148 460.147 224.734 456.737 237.649 451.933 C 265.576 441.54 318.463 450.039 323.721 407.942 C 325.054 397.276 322.55 388.275 316.159 380.289 C 304.596 365.838 293.068 350.889 275.975 342.343 C 248.21 328.465 211.447 344.776 183.35 335.413 C 164.216 329.036 147.686 315.536 127.691 311.54 C 101.027 306.21 82.325 326.723 68.74 338.92 C 57.681 350.967 55.161 369.297 55.161 369.297 Z"/>
  <path style="fill: none; stroke-width: 4px; stroke-linecap: round; stroke-linejoin: round; stroke: rgb(237, 69, 156);" d="M 108.509 168.389 C 107.839 175.749 109.097 182.463 109.097 189.827 C 109.097 191.153 109.372 196.529 108.986 197.694 C 108.599 198.862 101.528 194.183 96.189 190.409 C 93.315 188.376 87.431 185.057 84.544 183.04"/>
  <path style="fill: none; stroke-width: 2px; stroke-linecap: round; stroke-linejoin: round; stroke: rgb(237, 69, 156);" d="M 110.977 203.921 C 129.221 262.06 145.035 279.013 158.636 295.339 C 171.815 311.162 192.688 315.689 211.523 319.461 C 246.041 326.371 272.327 328.71 307.638 321.648 C 331.575 316.862 358.787 303.756 378.512 289.948 C 393.505 279.452 403.627 258.69 413.414 243.465 C 431.817 214.84 464.406 188.313 493.306 171.313 C 508.549 162.348 528.861 152.466 547.155 156.317 C 576.863 162.57 598.264 198.043 596.467 226.815 C 594.246 262.372 583.492 304.488 591.664 339.9 C 596.486 360.795 612.005 377.983 627.58 391.612 C 655.597 416.13 695.927 417.72 728.606 403.727 C 741.385 398.254 751.596 383.668 761.642 374.535 C 769.259 367.61 775.321 359.965 783.152 353.437 C 794.432 344.035 804.822 333.486 818.746 327.52 C 834.521 320.759 856.257 327.667 870.179 339.269 C 870.179 339.269 885.611 355.451 895.795 359.229 C 903.978 362.264 905.26 362.298 917.715 364.973"/>
  <path style="fill: none; stroke-width: 4px; stroke-linecap: round; stroke-linejoin: round; stroke: rgb(237, 69, 156);" d="M 940.552 349.106 C 936.515 358.059 925.428 367.235 918.031 373.494 C 915.775 375.405 910.146 381.923 907.463 384.756"/>
  <path style="fill: none; stroke-width: 4px; stroke-linecap: round; stroke-linejoin: round; stroke: rgb(237, 69, 156);" d="M 909.888 342.886 C 914.688 353.816 923.333 362.201 930.436 371.812 C 933.343 375.746 935.834 376.625 940.736 383.499"/>
</svg>